<svg width="40" height="40" viewBox="0 0 40 40" fill="none" xmlns="http://www.w3.org/2000/svg">
<path opacity="0.1" d="M20 40C31.0457 40 40 31.0457 40 20C40 8.9543 31.0457 0 20 0C8.9543 0 0 8.9543 0 20C0 31.0457 8.9543 40 20 40Z" fill="white"/>
<path d="M17.445 13.873V16.627H15.504V19.999H17.449V29.999H21.449V19.999H24.131C24.131 19.999 24.382 18.384 24.504 16.619H21.465V14.319C21.4979 14.1069 21.6012 13.9119 21.7583 13.7656C21.9154 13.6192 22.1171 13.5299 22.331 13.512H24.504V9.99902H21.544C17.347 9.99902 17.445 13.37 17.445 13.873Z" fill="white"/>
</svg>
