<svg width="40" height="40" viewBox="0 0 40 40" fill="none" xmlns="http://www.w3.org/2000/svg">
<path opacity="0.1" d="M20 40C31.0457 40 40 31.0457 40 20C40 8.9543 31.0457 0 20 0C8.9543 0 0 8.9543 0 20C0 31.0457 8.9543 40 20 40Z" fill="white"/>
<path d="M30 13.894C29.2465 14.2176 28.4509 14.4324 27.637 14.532C28.4904 14.0344 29.131 13.2403 29.437 12.301C28.6316 12.7709 27.7525 13.1012 26.837 13.278C26.4506 12.8741 25.9864 12.5526 25.4723 12.3329C24.9582 12.1133 24.405 12 23.846 12C23.2343 11.998 22.6301 12.1335 22.0778 12.3965C21.5256 12.6594 21.0395 13.0431 20.6554 13.5192C20.2714 13.9953 19.9993 14.5516 19.8592 15.147C19.7191 15.7424 19.7146 16.3616 19.846 16.959C18.2208 16.8833 16.6293 16.4685 15.1739 15.7413C13.7185 15.014 12.4313 13.9903 11.395 12.736C10.8665 13.6245 10.7026 14.6831 10.9375 15.6898C11.1724 16.6965 11.7879 17.5732 12.655 18.136C12.0068 18.1182 11.3721 17.9468 10.803 17.636V17.68C10.8095 18.6185 11.14 19.526 11.7386 20.2489C12.3372 20.9718 13.1671 21.4657 14.088 21.647C13.737 21.7381 13.3756 21.7828 13.013 21.78C12.7526 21.7845 12.4925 21.7614 12.237 21.711C12.5084 22.5171 13.022 23.2198 13.7077 23.7231C14.3933 24.2263 15.2176 24.5057 16.068 24.523C14.6091 25.6431 12.8203 26.2483 10.981 26.244C10.6531 26.246 10.3255 26.2273 10 26.188C11.881 27.3795 14.0634 28.0082 16.29 28C17.8134 28.0225 19.3262 27.7421 20.7403 27.175C22.1544 26.6079 23.4418 25.7655 24.5276 24.6967C25.6134 23.6278 26.4759 22.3539 27.0652 20.9488C27.6544 19.5438 27.9586 18.0356 27.96 16.512C27.96 16.334 27.954 16.161 27.945 15.99C28.7518 15.4222 29.4482 14.7119 30 13.894Z" fill="white"/>
</svg>
