<svg width="40" height="40" viewBox="0 0 40 40" fill="none" xmlns="http://www.w3.org/2000/svg">
<path opacity="0.1" d="M20 40C31.0457 40 40 31.0457 40 20C40 8.9543 31.0457 0 20 0C8.9543 0 0 8.9543 0 20C0 31.0457 8.9543 40 20 40Z" fill="white"/>
<path fill-rule="evenodd" clip-rule="evenodd" d="M27.934 21.6299C28.6874 22.2891 29.4067 22.9864 30.089 23.7189C30.3846 24.0474 30.6435 24.4072 30.861 24.7919C30.9374 24.8968 30.9858 25.0194 31.0016 25.1481C31.0173 25.2769 30.9999 25.4076 30.9511 25.5278C30.9022 25.6479 30.8234 25.7536 30.7223 25.8349C30.6211 25.9161 30.5009 25.9701 30.373 25.9919H27.168C26.7895 26.0208 26.4094 25.9639 26.056 25.8254C25.7026 25.6868 25.385 25.4703 25.127 25.1919C24.683 24.7559 24.272 24.2919 23.846 23.8419C23.6754 23.6535 23.4815 23.4875 23.269 23.3479C23.1878 23.2788 23.0915 23.2298 22.9879 23.2047C22.8843 23.1796 22.7762 23.1793 22.6724 23.2036C22.5686 23.2279 22.472 23.2762 22.3903 23.3447C22.3086 23.4132 22.2441 23.4999 22.202 23.5979C21.9768 24.0446 21.8612 24.5386 21.865 25.0389C21.831 25.7659 21.603 25.9579 20.844 25.9909C19.2564 26.1125 17.6667 25.7832 16.258 25.0409C15.0451 24.338 13.9937 23.3877 13.172 22.2519C11.5688 20.0807 10.2071 17.7412 9.11101 15.2749C8.85501 14.7249 9.04201 14.4299 9.67201 14.4189C10.718 14.3989 11.763 14.4009 12.81 14.4189C13.0026 14.4191 13.1902 14.4799 13.3463 14.5926C13.5024 14.7053 13.6192 14.8642 13.68 15.0469C14.2373 16.3927 14.9512 17.6682 15.807 18.8469C16.0207 19.1761 16.2917 19.4643 16.607 19.6979C16.6692 19.7601 16.7468 19.8046 16.8319 19.8267C16.9169 19.8489 17.0064 19.8479 17.091 19.824C17.1756 19.8 17.2522 19.7539 17.3131 19.6905C17.3739 19.627 17.4167 19.5484 17.437 19.4629C17.5414 19.208 17.6039 18.9378 17.622 18.6629C17.7188 17.7336 17.7013 16.796 17.57 15.8709C17.5455 15.6029 17.4303 15.3512 17.2434 15.1576C17.0564 14.9639 16.809 14.8399 16.542 14.8059C16.236 14.7499 16.281 14.6399 16.43 14.4719C16.543 14.3191 16.6916 14.1962 16.8629 14.1139C17.0343 14.0316 17.2231 13.9925 17.413 13.9999H21.035C21.605 14.1079 21.735 14.3549 21.81 14.9079V18.7859C21.804 18.9999 21.921 19.6349 22.321 19.7769C22.641 19.8769 22.852 19.6309 23.044 19.4349C23.8737 18.5377 24.5613 17.5189 25.083 16.4139C25.328 15.9369 25.539 15.4409 25.744 14.9449C25.7973 14.7742 25.9079 14.6272 26.0572 14.5288C26.2065 14.4304 26.3852 14.3866 26.563 14.4049H30.049C30.152 14.4026 30.255 14.4086 30.357 14.4229C30.944 14.5229 31.105 14.7629 30.924 15.3159C30.5912 16.1585 30.1231 16.9412 29.538 17.6329C28.957 18.4079 28.338 19.1569 27.758 19.9329C27.228 20.6449 27.27 21.0039 27.928 21.6229L27.934 21.6299Z" fill="white"/>
</svg>
