<svg width="128" height="50" viewBox="0 0 128 50" fill="none" xmlns="http://www.w3.org/2000/svg">
<path d="M115.613 9.1193C116.532 9.12032 117.414 9.48663 118.064 10.1379C118.714 10.7891 119.08 11.672 119.081 12.593V37.4071C119.08 38.3281 118.714 39.2111 118.064 39.8623C117.414 40.5135 116.532 40.8798 115.613 40.8808H12.3872C11.4677 40.8798 10.5862 40.5135 9.93598 39.8623C9.28579 39.2111 8.92007 38.3281 8.91905 37.4071V12.5937C8.92007 11.6727 9.28579 10.7897 9.93598 10.1385C10.5862 9.48727 11.4677 9.12096 12.3872 9.11994H115.613V9.1193ZM115.613 8.4584H12.3872C11.2932 8.46162 10.2448 8.89831 9.47114 9.6731C8.69746 10.4479 8.26131 11.4979 8.25793 12.5937V37.4078C8.26114 38.5037 8.69722 39.5538 9.47092 40.3287C10.2446 41.1037 11.293 41.5405 12.3872 41.5437H115.613C116.707 41.5405 117.755 41.1037 118.529 40.3287C119.303 39.5538 119.739 38.5037 119.742 37.4078V12.5937C119.739 11.4977 119.303 10.4476 118.529 9.67269C117.755 8.89775 116.707 8.46098 115.613 8.45776V8.4584Z" fill="black"/>
<path d="M15.9297 41.5411C15.6429 41.5411 15.3633 41.5379 15.0791 41.5321C14.4903 41.5251 13.9027 41.478 13.3204 41.3911C12.5126 41.307 11.7144 41.1484 10.9357 40.9174C10.4547 40.6945 10.0114 40.3978 9.62182 40.0379C9.23679 39.6918 8.91231 39.2836 8.66182 38.8302C8.50171 38.3831 8.43887 37.9068 8.4775 37.4334C8.65209 36.8949 8.76691 36.3388 8.8199 35.7751C8.81414 35.5924 8.8071 34.9853 8.8071 34.9853V15.0046C8.8071 15.0046 8.81542 14.4065 8.82118 14.2308C8.82758 13.6885 8.3655 13.209 8.4615 12.6738C8.5511 12.1731 8.41222 11.6264 8.66118 11.1744C8.9108 10.7211 9.23367 10.3124 9.6167 9.96481C10.0007 9.6084 11.2743 9.30969 11.762 9.0802C12.2559 8.85136 12.7794 8.69298 13.3172 8.60969C13.9005 8.52209 14.4892 8.47475 15.0791 8.46802L15.9303 8.45776H112.615L113.474 8.46866C114.059 8.47494 114.644 8.52184 115.222 8.60905C115.766 8.69337 116.295 8.8528 116.794 9.08276C117.751 9.52675 118.545 10.2584 119.066 11.1757C119.31 11.6208 119.48 12.1025 119.57 12.602C119.667 13.1408 119.722 13.6866 119.733 14.234C119.733 14.4789 119.733 14.7424 119.733 15.0033C119.741 15.3276 119.741 15.6366 119.741 15.9475V34.0507C119.741 34.3648 119.741 34.6719 119.733 34.9808C119.733 35.2622 119.733 35.5199 119.729 35.7847C119.718 36.3223 119.665 36.8582 119.569 37.3872C119.48 37.8933 119.308 38.3813 119.061 38.8315C118.808 39.2799 118.486 39.6847 118.105 40.0302C117.715 40.3921 117.271 40.6905 116.789 40.9148C116.29 41.1462 115.762 41.3063 115.219 41.3905C114.637 41.4778 114.049 41.525 113.461 41.5315C113.185 41.5373 112.897 41.5405 112.616 41.5405H111.597L15.9297 41.5411Z" fill="black"/>
<path d="M35.3185 25.2483C35.3275 24.5579 35.5106 23.8811 35.8509 23.2807C36.1912 22.6803 36.6775 22.1759 37.2647 21.8143C36.8915 21.281 36.3992 20.8422 35.8271 20.5328C35.2549 20.2233 34.6186 20.0517 33.9687 20.0316C32.5818 19.8861 31.2378 20.8649 30.5313 20.8649C29.8106 20.8649 28.7226 20.0483 27.5514 20.0726C26.7935 20.0971 26.0549 20.3178 25.4075 20.7132C24.7601 21.1087 24.226 21.6654 23.8574 22.329C22.2574 25.0989 23.4516 29.1688 24.9812 31.4079C25.7492 32.504 26.6414 33.7284 27.8119 33.6854C28.9575 33.638 29.385 32.954 30.7681 32.954C32.1377 32.954 32.539 33.6854 33.7338 33.6592C34.9626 33.6393 35.737 32.5579 36.4762 31.4515C37.0261 30.6704 37.4493 29.8072 37.73 28.8938C37.0159 28.5913 36.4065 28.085 35.9778 27.438C35.549 26.791 35.32 26.0319 35.3191 25.2553L35.3185 25.2483Z" fill="white"/>
<path d="M33.0631 18.557C33.7326 17.7518 34.0627 16.7172 33.9834 15.6724C32.9596 15.7802 32.0138 16.2702 31.3344 17.0448C31.0021 17.423 30.7475 17.8631 30.5851 18.3399C30.4227 18.8167 30.3557 19.3209 30.3879 19.8236C30.9004 19.8292 31.4075 19.718 31.871 19.4986C32.3344 19.2792 32.742 18.9572 33.0631 18.557Z" fill="white"/>
<path d="M49.7986 30.904H45.8894L44.9505 33.6796H43.2948L46.9973 23.4084H48.7176L52.42 33.6796H50.7362L49.7986 30.904ZM46.2945 29.6219H49.3928L47.8651 25.1161H47.8216L46.2945 29.6219Z" fill="white"/>
<path d="M60.4162 29.9351C60.4162 32.262 59.1726 33.7575 57.2962 33.7575C56.8207 33.7825 56.3479 33.6728 55.9318 33.4411C55.5157 33.2093 55.1732 32.8649 54.9435 32.4472H54.9083V36.1562H53.3723V26.1902H54.8578V27.4357H54.8891C55.1294 27.0201 55.4777 26.6775 55.897 26.4444C56.3162 26.2114 56.7907 26.0965 57.2699 26.112C59.165 26.112 60.4162 27.6145 60.4162 29.9351ZM58.8386 29.9351C58.8386 28.419 58.0565 27.4222 56.8629 27.4222C55.6904 27.4222 54.9013 28.4402 54.9013 29.9351C54.9013 31.444 55.6898 32.4543 56.8629 32.4543C58.0565 32.4543 58.8386 31.4645 58.8386 29.9351Z" fill="white"/>
<path d="M68.6445 29.9351C68.6445 32.262 67.401 33.7575 65.5245 33.7575C65.0491 33.7825 64.5762 33.6728 64.1601 33.4411C63.7441 33.2093 63.4015 32.8649 63.1719 32.4472H63.1367V36.1562H61.6045V26.1902H63.0899V27.4357H63.1181C63.3584 27.0201 63.7067 26.6775 64.1259 26.4444C64.5452 26.2114 65.0197 26.0965 65.4989 26.112C67.3939 26.112 68.6445 27.6145 68.6445 29.9351ZM67.0669 29.9351C67.0669 28.419 66.2848 27.4222 65.0912 27.4222C63.9187 27.4222 63.1296 28.4402 63.1296 29.9351C63.1296 31.444 63.9181 32.4543 65.0912 32.4543C66.2848 32.4543 67.0669 31.4645 67.0669 29.9351Z" fill="white"/>
<path d="M74.084 30.8198C74.1979 31.8384 75.1854 32.507 76.5358 32.507C77.8293 32.507 78.7598 31.8384 78.7598 30.9198C78.7598 30.1224 78.1985 29.6455 76.8693 29.3173L75.54 28.9968C73.6571 28.541 72.7829 27.6589 72.7829 26.2275C72.7829 24.4551 74.3246 23.2378 76.5141 23.2378C78.6811 23.2378 80.1665 24.4557 80.2165 26.2275H78.6677C78.5749 25.2019 77.7288 24.5839 76.4917 24.5839C75.2545 24.5839 74.4091 25.2102 74.4091 26.1224C74.4091 26.8487 74.9493 27.2763 76.2715 27.6032L77.4011 27.8807C79.5054 28.3788 80.379 29.2269 80.379 30.7282C80.379 32.6513 78.8507 33.8532 76.42 33.8532C74.1461 33.8532 72.6101 32.6782 72.5109 30.8198H74.084Z" fill="white"/>
<path d="M83.6922 24.4194V26.1919H85.1142V27.4098H83.6922V31.5348C83.6922 32.1758 83.977 32.4752 84.6016 32.4752C84.7704 32.4724 84.939 32.4606 85.1066 32.4399V33.6502C84.8256 33.7028 84.5399 33.7267 84.2541 33.7214C82.7405 33.7214 82.1498 33.1521 82.1498 31.6996V27.4047H81.0618V26.1867H82.1498V24.4194H83.6922Z" fill="white"/>
<path d="M85.9374 29.9354C85.9374 27.579 87.323 26.0989 89.4836 26.0989C91.6443 26.0989 93.0305 27.5796 93.0305 29.9354C93.0305 32.2912 91.6558 33.7713 89.4836 33.7713C87.3115 33.7713 85.9374 32.297 85.9374 29.9354ZM91.4663 29.9354C91.4663 28.3194 90.7271 27.3649 89.4823 27.3649C88.2375 27.3649 87.4983 28.3264 87.4983 29.9354C87.4983 31.5579 88.2369 32.5046 89.4823 32.5046C90.7278 32.5046 91.4663 31.5579 91.4663 29.9354Z" fill="white"/>
<path d="M94.2957 26.1907H95.7594V27.4651H95.7946C95.8936 27.067 96.1264 26.7151 96.4539 26.4686C96.7814 26.2222 97.1837 26.0962 97.593 26.1119C97.77 26.1112 97.9464 26.1303 98.1191 26.169V27.6068C97.8959 27.5384 97.6631 27.507 97.4298 27.5138C97.2068 27.5046 96.9844 27.5439 96.7779 27.6289C96.5715 27.714 96.3859 27.8428 96.2338 28.0065C96.0818 28.1702 95.967 28.365 95.8972 28.5774C95.8275 28.7898 95.8045 29.0148 95.8298 29.2369V33.6786H94.2938L94.2957 26.1907Z" fill="white"/>
<path d="M105.194 31.4803C104.988 32.8399 103.666 33.7726 101.975 33.7726C99.7991 33.7726 98.45 32.313 98.45 29.9713C98.45 27.6296 99.8074 26.0989 101.91 26.0989C103.979 26.0989 105.28 27.522 105.28 29.7925V30.3194H99.9994V30.4123C99.9751 30.688 100.01 30.9656 100.101 31.2268C100.192 31.4881 100.337 31.7269 100.527 31.9275C100.718 32.1282 100.948 32.2859 101.204 32.3904C101.46 32.4949 101.735 32.5437 102.011 32.5335C102.374 32.5678 102.738 32.4839 103.049 32.2941C103.361 32.1043 103.603 31.8189 103.739 31.4803H105.194ZM100.006 29.245H103.744C103.758 28.9972 103.72 28.7493 103.634 28.5167C103.548 28.2841 103.414 28.0719 103.242 27.8934C103.07 27.7149 102.863 27.574 102.633 27.4795C102.404 27.3851 102.158 27.3391 101.91 27.3444C101.661 27.3429 101.413 27.3909 101.181 27.4858C100.95 27.5807 100.74 27.7206 100.563 27.8973C100.386 28.074 100.246 28.2841 100.15 28.5154C100.055 28.7467 100.006 28.9947 100.006 29.245Z" fill="white"/>
</svg>
