<svg width="30" height="30" viewBox="0 0 30 30" fill="none" xmlns="http://www.w3.org/2000/svg">
<g clip-path="url(#clip0)">
<path d="M9.0061 19.7527H25.5361C27.4105 19.7527 28.9396 18.2237 28.9396 16.3493V9.3945C28.9396 9.38833 28.9396 9.376 28.9396 9.36983C28.9396 9.35134 28.9396 9.33901 28.9396 9.32051C28.9396 9.30818 28.9396 9.29585 28.9334 9.28351C28.9334 9.27118 28.9272 9.25269 28.9272 9.24036C28.9272 9.22802 28.9211 9.21569 28.9211 9.20336C28.9149 9.19103 28.9149 9.1787 28.9087 9.1602C28.9026 9.14787 28.9026 9.13554 28.8964 9.12321C28.8902 9.11088 28.8902 9.09855 28.8841 9.08622C28.8779 9.07388 28.8717 9.06155 28.8656 9.04306C28.8594 9.03073 28.8532 9.01839 28.8471 9.01223C28.8409 8.9999 28.8347 8.98757 28.8286 8.97523C28.8224 8.9629 28.8162 8.95674 28.8101 8.94441C28.8039 8.93207 28.7916 8.91974 28.7854 8.90741C28.7792 8.89508 28.7731 8.88892 28.7608 8.87658C28.7546 8.86425 28.7423 8.85809 28.7361 8.84576C28.7299 8.83342 28.7176 8.82726 28.7114 8.81493C28.7053 8.8026 28.6929 8.79643 28.6868 8.79027C28.6744 8.77793 28.6683 8.77177 28.6559 8.75944C28.6436 8.75327 28.6374 8.74094 28.6251 8.73478C28.6128 8.72861 28.6004 8.71628 28.5881 8.71011C28.5758 8.70395 28.5696 8.69778 28.5573 8.69162C28.545 8.68545 28.5326 8.67928 28.5203 8.66695C28.508 8.66079 28.4956 8.65462 28.4833 8.64846C28.471 8.64229 28.4586 8.63612 28.4463 8.62996C28.434 8.62379 28.4216 8.61763 28.4093 8.61146C28.397 8.6053 28.3847 8.6053 28.3723 8.59913C28.36 8.59297 28.3415 8.5868 28.3292 8.5868C28.3168 8.5868 28.3045 8.58064 28.2983 8.58064C28.2798 8.57447 28.2675 8.57447 28.249 8.57447C28.2428 8.57447 28.2367 8.5683 28.2243 8.5683L7.27357 5.67663V2.75412C7.27357 2.72329 7.27357 2.69247 7.2674 2.6678C7.2674 2.66164 7.2674 2.65547 7.26123 2.64314C7.26123 2.62464 7.25507 2.60615 7.25507 2.58765C7.2489 2.56915 7.2489 2.55682 7.24274 2.53832C7.24274 2.52599 7.23657 2.51983 7.23657 2.5075C7.23041 2.489 7.22424 2.4705 7.21808 2.45201C7.21808 2.44584 7.21191 2.43351 7.21191 2.42734C7.20574 2.40885 7.19958 2.39652 7.18725 2.37802C7.18108 2.37185 7.18108 2.35952 7.17492 2.35336C7.16875 2.34102 7.16258 2.32869 7.15025 2.31636C7.14409 2.30403 7.13792 2.29787 7.13176 2.28553C7.12559 2.2732 7.11943 2.26704 7.11326 2.25471C7.10709 2.24237 7.09476 2.23004 7.0886 2.21771C7.08243 2.21155 7.07627 2.20538 7.0701 2.19922C7.05777 2.18688 7.04544 2.17455 7.03311 2.16222C7.02694 2.15606 7.02078 2.14989 7.01461 2.14372C7.00228 2.13139 6.98995 2.11906 6.97145 2.10673C6.96528 2.10057 6.95295 2.0944 6.94679 2.08823C6.93446 2.0759 6.92213 2.06974 6.90979 2.05741C6.8913 2.04507 6.8728 2.03274 6.86047 2.02658C6.8543 2.02041 6.84814 2.02041 6.84197 2.01425C6.81731 2.00192 6.78648 1.98958 6.76182 1.97725L2.21776 0.0659103C1.79233 -0.112893 1.30524 0.0844072 1.12644 0.509835C0.947639 0.935263 1.14494 1.42235 1.57037 1.60115L5.60268 3.30286V7.07622V7.67429V12.2615V16.3616V21.5408C5.60268 23.2671 6.89746 24.6976 8.56835 24.9134C8.26623 25.4189 8.08743 26.0108 8.08743 26.6397C8.08743 28.4956 9.598 30 11.4477 30C13.2974 30 14.808 28.4894 14.808 26.6397C14.808 26.0232 14.6415 25.4374 14.3455 24.9442H21.8306C21.5346 25.4436 21.3682 26.0232 21.3682 26.6397C21.3682 28.4956 22.8788 30 24.7284 30C26.5781 30 28.0887 28.4894 28.0887 26.6397C28.0887 24.7901 26.5781 23.2795 24.7284 23.2795H9.0061C8.04427 23.2795 7.2674 22.4964 7.2674 21.5408V19.2842C7.77298 19.5801 8.37105 19.7527 9.0061 19.7527ZM13.1494 26.6336C13.1494 27.5707 12.3849 28.3291 11.4539 28.3291C10.5228 28.3291 9.75831 27.5646 9.75831 26.6336C9.75831 25.7026 10.5228 24.938 11.4539 24.938C12.3849 24.938 13.1494 25.6964 13.1494 26.6336ZM26.4301 26.6336C26.4301 27.5707 25.6656 28.3291 24.7346 28.3291C23.8036 28.3291 23.0391 27.5646 23.0391 26.6336C23.0391 25.7026 23.8036 24.938 24.7346 24.938C25.6656 24.938 26.4301 25.6964 26.4301 26.6336ZM25.5361 18.088H9.0061C8.04427 18.088 7.2674 17.305 7.2674 16.3493V12.2492V7.66196V7.35367L27.2748 10.1097V16.3432C27.2748 17.3112 26.4918 18.088 25.5361 18.088Z" fill="#333333"/>
</g>
<defs>
<clipPath id="clip0">
<rect width="30" height="30" fill="white"/>
</clipPath>
</defs>
</svg>
