<svg width="129" height="50" viewBox="0 0 129 50" fill="none" xmlns="http://www.w3.org/2000/svg">
<path d="M16.054 41.6891C15.765 41.6891 15.4832 41.6859 15.1968 41.6795C14.6034 41.6724 14.0112 41.6249 13.4243 41.5372C12.6102 41.4521 11.8056 41.2919 11.0211 41.0587C10.5358 40.8337 10.0888 40.5343 9.69623 40.1714C9.30793 39.8217 8.98092 39.4097 8.72873 38.9524C8.56731 38.5013 8.50399 38.021 8.54297 37.5435C8.71925 36.9997 8.83518 36.4383 8.88869 35.8692C8.88289 35.687 8.87579 35.074 8.87579 35.074V14.9141C8.87579 14.9141 8.88418 14.3108 8.88998 14.1337C8.89708 13.5863 8.43139 13.1034 8.52878 12.5625C8.61779 12.0595 8.47783 11.5058 8.72873 11.0492C8.98016 10.5924 9.30555 10.1803 9.69172 9.82958C10.0787 9.47026 11.3623 9.1689 11.8538 8.93708C12.3513 8.70633 12.879 8.54657 13.4211 8.4625C14.009 8.37411 14.6023 8.32634 15.1968 8.31954L16.0546 8.30859H113.495L114.36 8.31954C114.95 8.32588 115.539 8.37322 116.123 8.46121C116.67 8.54629 117.203 8.7071 117.707 8.93901C118.671 9.38802 119.472 10.1264 119.996 11.0511C120.242 11.5005 120.413 11.9865 120.504 12.4903C120.602 13.0342 120.657 13.585 120.668 14.1375C120.668 14.3848 120.668 14.6527 120.668 14.9141C120.676 15.2413 120.676 15.5529 120.676 15.8672V34.1312C120.676 34.448 120.676 34.7578 120.668 35.0694C120.668 35.3534 120.668 35.6129 120.665 35.8808C120.654 36.4234 120.599 36.9643 120.503 37.4984C120.413 38.0088 120.24 38.5011 119.991 38.9556C119.737 39.4078 119.412 39.8161 119.028 40.1649C118.635 40.5298 118.187 40.831 117.701 41.0574C117.199 41.2908 116.666 41.4523 116.119 41.5372C115.532 41.6253 114.94 41.6729 114.347 41.6795C114.069 41.6853 113.779 41.6891 113.496 41.6891H112.469H16.054Z" fill="black"/>
<path d="M116.516 9.04638C117.443 9.0474 118.331 9.41538 118.986 10.0696C119.642 10.7238 120.01 11.6107 120.011 12.5359V37.4628C120.01 38.388 119.642 39.2749 118.986 39.9291C118.331 40.5833 117.443 40.9513 116.516 40.9523H12.484C11.5574 40.9513 10.6689 40.5833 10.0137 39.9291C9.3584 39.2749 8.98982 38.388 8.98879 37.4628V12.5365C8.98982 11.6114 9.3584 10.7244 10.0137 10.0702C10.6689 9.41602 11.5574 9.04805 12.484 9.04703H116.516V9.04638ZM116.516 8.38248H12.484C11.3814 8.38571 10.3249 8.82438 9.54519 9.6027C8.76547 10.381 8.32591 11.4357 8.32251 12.5365V37.4634C8.32574 38.5643 8.76523 39.6192 9.54497 40.3977C10.3247 41.1762 11.3813 41.6149 12.484 41.6181H116.516C117.619 41.6149 118.675 41.1762 119.455 40.3977C120.235 39.6192 120.674 38.5643 120.678 37.4634V12.5365C120.674 11.4356 120.235 10.3807 119.455 9.60229C118.675 8.82383 117.619 8.38506 116.516 8.38184V8.38248Z" fill="black"/>
<path d="M65.0282 26.4745C64.3287 26.477 63.6456 26.6864 63.0652 27.0763C62.4847 27.4662 62.0331 28.019 61.7671 28.6649C61.5012 29.3109 61.4329 30.0211 61.571 30.7057C61.709 31.3904 62.0471 32.0189 62.5427 32.5118C63.0382 33.0048 63.669 33.3401 64.3553 33.4754C65.0416 33.6107 65.7526 33.54 66.3987 33.2721C67.0447 33.0043 67.5968 32.5513 67.9852 31.9704C68.3736 31.3896 68.5809 30.7068 68.5809 30.0084C68.5878 29.5413 68.5005 29.0776 68.3243 28.6449C68.148 28.2122 67.8864 27.8193 67.5549 27.4896C67.2235 27.1599 66.829 26.9001 66.3949 26.7257C65.9608 26.5513 65.496 26.4659 65.0282 26.4745ZM65.0282 32.1495C64.5975 32.1798 64.1677 32.0799 63.7946 31.8629C63.4216 31.6458 63.1226 31.3217 62.9366 30.9327C62.7506 30.5437 62.6862 30.1078 62.7518 29.6817C62.8174 29.2557 63.01 28.8592 63.3044 28.5439C63.5989 28.2286 63.9815 28.0091 64.4027 27.914C64.8238 27.8188 65.2638 27.8525 65.6656 28.0105C66.0673 28.1685 66.412 28.4436 66.655 28.7999C66.8979 29.1562 67.0278 29.5774 67.0277 30.0084C67.0407 30.2809 66.9989 30.5532 66.9049 30.8094C66.8108 31.0655 66.6663 31.3002 66.48 31.4997C66.2937 31.6993 66.0692 31.8595 65.8199 31.9711C65.5706 32.0827 65.3014 32.1434 65.0282 32.1495ZM57.2785 26.4745C56.579 26.477 55.8959 26.6864 55.3155 27.0763C54.7351 27.4662 54.2834 28.019 54.0174 28.6649C53.7515 29.3109 53.6832 30.0211 53.8213 30.7057C53.9593 31.3904 54.2975 32.0189 54.793 32.5118C55.2886 33.0048 55.9193 33.3401 56.6056 33.4754C57.2919 33.6107 58.003 33.54 58.649 33.2721C59.2951 33.0043 59.8471 32.5513 60.2355 31.9704C60.6239 31.3896 60.8312 30.7068 60.8312 30.0084C60.8381 29.5413 60.7509 29.0776 60.5746 28.6449C60.3983 28.2122 60.1367 27.8193 59.8052 27.4896C59.4738 27.1599 59.0793 26.9001 58.6452 26.7257C58.2111 26.5513 57.7464 26.4659 57.2785 26.4745ZM57.2785 32.1495C56.8478 32.1798 56.418 32.0799 56.0449 31.8629C55.6719 31.6458 55.3729 31.3217 55.1869 30.9327C55.0009 30.5437 54.9365 30.1078 55.0022 29.6817C55.0678 29.2557 55.2603 28.8592 55.5547 28.5439C55.8492 28.2286 56.2319 28.0091 56.653 27.914C57.0741 27.8188 57.5142 27.8525 57.9159 28.0105C58.3176 28.1685 58.6624 28.4436 58.9053 28.7999C59.1483 29.1562 59.2781 29.5774 59.278 30.0084C59.291 30.2809 59.2493 30.5532 59.1552 30.8094C59.0611 31.0655 58.9167 31.3002 58.7303 31.4997C58.544 31.6993 58.3196 31.8595 58.0702 31.9711C57.8209 32.0827 57.5517 32.1434 57.2785 32.1495ZM48.0583 27.5576V29.058H51.6509C51.5991 29.7608 51.3112 30.4256 50.8337 30.9447C50.4737 31.3105 50.0408 31.5969 49.5631 31.7854C49.0854 31.974 48.5735 32.0605 48.0602 32.0394C47.0131 32.0206 46.0152 31.5921 45.2813 30.8462C44.5474 30.1002 44.1362 29.0964 44.1362 28.0508C44.1362 27.0053 44.5474 26.0015 45.2813 25.2555C46.0152 24.5095 47.0131 24.0811 48.0602 24.0623C49.0693 24.0488 50.0429 24.4337 50.7692 25.1332L51.8257 24.0803C51.3302 23.5905 50.7417 23.2043 50.0948 22.9445C49.4479 22.6846 48.7555 22.5563 48.0583 22.5671C47.3293 22.5559 46.6053 22.6896 45.9286 22.9604C45.2518 23.2312 44.6358 23.6337 44.1163 24.1445C43.5968 24.6552 43.1843 25.264 42.9027 25.9354C42.6211 26.6068 42.4761 27.3275 42.4761 28.0554C42.4761 28.7832 42.6211 29.5039 42.9027 30.1753C43.1843 30.8467 43.5968 31.4555 44.1163 31.9662C44.6358 32.477 45.2518 32.8795 45.9286 33.1503C46.6053 33.4211 47.3293 33.5548 48.0583 33.5436C48.7704 33.5727 49.4805 33.4502 50.1415 33.1842C50.8026 32.9182 51.3993 32.5148 51.8922 32.0008C52.7681 31.0464 53.235 29.7876 53.1931 28.4939C53.1967 28.1799 53.1697 27.8663 53.1125 27.5576H48.0583ZM85.7663 28.7218C85.5535 28.0816 85.1483 27.5222 84.6059 27.1199C84.0636 26.7176 83.4102 26.4918 82.7348 26.4732C82.28 26.476 81.8305 26.5708 81.4134 26.752C80.9964 26.9331 80.6205 27.1969 80.3085 27.5272C79.9965 27.8575 79.7548 28.2476 79.5981 28.6739C79.4414 29.1002 79.373 29.5537 79.3969 30.0071C79.3866 30.4717 79.4702 30.9336 79.6428 31.3653C79.8153 31.7969 80.0732 32.1893 80.4011 32.5192C80.729 32.8491 81.1201 33.1096 81.5511 33.2851C81.9821 33.4607 82.4441 33.5478 82.9096 33.5411C83.4927 33.5443 84.0674 33.4029 84.5823 33.1296C85.0971 32.8562 85.5359 32.4595 85.8591 31.975L84.6524 31.1714C84.4716 31.4708 84.2161 31.7182 83.9109 31.8895C83.6056 32.0607 83.261 32.1499 82.9108 32.1482C82.5502 32.1621 82.1937 32.0675 81.8876 31.8766C81.5814 31.6858 81.3397 31.4076 81.1939 31.078L85.9269 29.123L85.7663 28.7218ZM80.9391 29.9002C80.9226 29.6431 80.9576 29.3854 81.0421 29.1419C81.1266 28.8985 81.2588 28.6743 81.431 28.4825C81.6032 28.2906 81.812 28.135 82.0452 28.0246C82.2783 27.9142 82.5312 27.8513 82.7889 27.8396C83.0575 27.8218 83.3253 27.8834 83.559 28.0168C83.7927 28.1501 83.9818 28.3492 84.1028 28.5892L80.9391 29.9002ZM77.0897 33.3279H78.6442V22.9399H77.0897V33.3279ZM74.5413 27.2639H74.4878C74.2514 27.0075 73.9629 26.8043 73.6415 26.6682C73.3202 26.532 72.9734 26.466 72.6244 26.4745C71.7131 26.5152 70.8526 26.9053 70.2222 27.5635C69.5918 28.2218 69.2399 29.0974 69.2399 30.0081C69.2399 30.9188 69.5918 31.7944 70.2222 32.4527C70.8526 33.1109 71.7131 33.501 72.6244 33.5417C72.9748 33.551 73.3231 33.4839 73.6449 33.3452C73.9667 33.2064 74.2544 32.9992 74.4878 32.7381H74.5413V33.2474C74.5413 34.5997 73.8183 35.3222 72.6515 35.3222C72.2626 35.3125 71.8854 35.1873 71.568 34.9628C71.2507 34.7383 71.0074 34.4244 70.8693 34.0614L69.5148 34.6242C69.77 35.2447 70.205 35.775 70.7641 36.1471C71.3232 36.5192 71.9809 36.716 72.6528 36.7125C74.4762 36.7125 76.0184 35.6416 76.0184 33.0317V26.6883H74.5426L74.5413 27.2639ZM72.7585 32.1495C72.221 32.1039 71.7203 31.8585 71.3554 31.4619C70.9904 31.0653 70.7879 30.5463 70.7879 30.0078C70.7879 29.4692 70.9904 28.9503 71.3554 28.5537C71.7203 28.1571 72.221 27.9117 72.7585 27.866C73.026 27.8791 73.288 27.9458 73.5291 28.0621C73.7702 28.1785 73.9853 28.3421 74.1616 28.5432C74.338 28.7444 74.472 28.9789 74.5556 29.2328C74.6392 29.4868 74.6708 29.7549 74.6484 30.0213C74.6694 30.2858 74.6367 30.5519 74.5523 30.8035C74.468 31.0552 74.3337 31.2873 74.1574 31.4859C73.9812 31.6846 73.7667 31.8457 73.5266 31.9598C73.2866 32.0738 73.026 32.1383 72.7605 32.1495H72.7585ZM93.0496 22.9412H89.3286V33.3279H90.8805V29.3928H93.0496C93.4888 29.4168 93.9283 29.3512 94.3412 29.1999C94.7541 29.0486 95.1318 28.8149 95.4512 28.513C95.7706 28.2111 96.025 27.8474 96.1989 27.444C96.3728 27.0406 96.4624 26.6061 96.4624 26.167C96.4624 25.7279 96.3728 25.2934 96.1989 24.89C96.025 24.4866 95.7706 24.1229 95.4512 23.821C95.1318 23.5191 94.7541 23.2854 94.3412 23.1341C93.9283 22.9828 93.4888 22.9172 93.0496 22.9412ZM93.0896 27.9472H90.8805V24.3862H93.0896C93.3266 24.3817 93.5621 24.4244 93.7824 24.5118C94.0027 24.5993 94.2033 24.7297 94.3725 24.8954C94.5417 25.0612 94.6762 25.259 94.7679 25.4772C94.8597 25.6954 94.9069 25.9297 94.9069 26.1664C94.9069 26.403 94.8597 26.6373 94.7679 26.8555C94.6762 27.0737 94.5417 27.2715 94.3725 27.4373C94.2033 27.603 94.0027 27.7334 93.7824 27.8209C93.5621 27.9083 93.3266 27.951 93.0896 27.9465V27.9472ZM102.687 26.4558C102.12 26.4224 101.556 26.5549 101.063 26.8372C100.57 27.1195 100.171 27.5393 99.9137 28.045L101.293 28.6201C101.429 28.3691 101.636 28.1633 101.888 28.028C102.141 27.8927 102.427 27.8337 102.712 27.8583C103.106 27.8198 103.499 27.939 103.805 28.1896C104.111 28.4402 104.305 28.8018 104.345 29.1951V29.3014C103.846 29.037 103.29 28.8994 102.725 28.9008C101.242 28.9008 99.7266 29.7161 99.7266 31.239C99.741 31.5601 99.8198 31.8751 99.9585 32.1652C100.097 32.4553 100.293 32.7146 100.534 32.9279C100.775 33.1411 101.056 33.3038 101.361 33.4064C101.666 33.5089 101.989 33.5493 102.31 33.525C102.701 33.5477 103.091 33.4655 103.439 33.2868C103.788 33.1081 104.082 32.8395 104.291 32.5088H104.345V33.3105H105.844V29.3278C105.848 27.4842 104.469 26.4552 102.689 26.4552L102.687 26.4558ZM102.5 32.1482C101.991 32.1482 101.282 31.8945 101.282 31.2667C101.282 30.465 102.165 30.1572 102.928 30.1572C103.423 30.1442 103.913 30.264 104.347 30.5043C104.29 30.9542 104.072 31.3683 103.733 31.6704C103.394 31.9724 102.957 32.1419 102.503 32.1476L102.5 32.1482ZM111.307 26.6825L109.527 31.1862H109.473L107.625 26.6825H105.952L108.726 32.9763L107.147 36.4774H108.766L113.037 26.6818L111.307 26.6825ZM97.3195 33.3279H98.8727V22.9405H97.3195V33.3279Z" fill="white"/>
<path d="M17.0074 14.6448C16.7342 14.9705 16.5957 15.3881 16.6204 15.8122V34.1883C16.5955 34.6125 16.734 35.0302 17.0074 35.3558L17.0719 35.4157L27.3797 25.1217V24.8789L17.0693 14.5842L17.0074 14.6448Z" fill="url(#paint0_linear)"/>
<path d="M30.8169 28.5557L27.381 25.1222V24.8795L30.8188 21.4473L30.8962 21.4923L34.9688 23.8022C36.1298 24.4622 36.1298 25.5408 34.9688 26.2008L30.8962 28.5106L30.8169 28.5557Z" fill="url(#paint1_linear)"/>
<path d="M30.8949 28.5101L27.379 25L17.0067 35.3558C17.2439 35.5646 17.5467 35.684 17.8628 35.6933C18.1788 35.7026 18.4882 35.6012 18.7372 35.4067L30.8949 28.5101Z" fill="url(#paint2_linear)"/>
<path d="M30.8949 21.4908L18.7372 14.5948C18.4882 14.4003 18.1788 14.2989 17.8628 14.3082C17.5467 14.3175 17.2439 14.4369 17.0067 14.6457L27.379 25.0009L30.8949 21.4908Z" fill="url(#paint3_linear)"/>
<path opacity="0.2" d="M30.8176 28.4326L18.7374 35.2848C18.498 35.4668 18.2058 35.5662 17.9049 35.5678C17.604 35.5694 17.3107 35.4732 17.0694 35.2938L17.0049 35.3582L17.0694 35.4187C17.3107 35.5982 17.604 35.6944 17.9049 35.6927C18.2058 35.6911 18.498 35.5918 18.7374 35.4097L30.895 28.5131L30.8176 28.4326Z" fill="black"/>
<path opacity="0.12" d="M17.0068 35.2346C16.7338 34.909 16.5956 34.4913 16.6204 34.0671V34.1895C16.5956 34.6135 16.7338 35.0309 17.0068 35.3563L17.0712 35.2919L17.0068 35.2346Z" fill="black"/>
<path opacity="0.12" d="M34.968 26.0792L30.8181 28.4328L30.8955 28.5101L34.968 26.2003C35.2076 26.0963 35.4149 25.9301 35.5682 25.719C35.7216 25.5079 35.8155 25.2596 35.8401 25C35.789 25.2353 35.6835 25.4554 35.5321 25.6427C35.3807 25.8301 35.1876 25.9796 34.968 26.0792Z" fill="black"/>
<path opacity="0.25" d="M18.7376 14.7157L34.9678 23.9241C35.1872 24.0237 35.3803 24.173 35.5317 24.3603C35.6831 24.5476 35.7886 24.7675 35.8398 25.0027C35.8154 24.7431 35.7216 24.4948 35.5682 24.2838C35.4148 24.0727 35.2074 23.9067 34.9678 23.803L18.7376 14.5947C17.5766 13.9346 16.6227 14.4833 16.6227 15.813V15.9354C16.6227 14.6043 17.5741 14.0563 18.7376 14.7157Z" fill="white"/>
<path d="M43.3724 20.2155H42.759V18.5451H43.2467C43.4859 18.2929 43.6668 17.9913 43.7766 17.6616C43.8864 17.3319 43.9224 16.9822 43.882 16.6371V14.1721H47.216V18.5451H47.7739V20.2155H47.1599V19.1575H43.3724V20.2155ZM44.5238 16.6378C44.5642 17.3071 44.3987 17.9728 44.0497 18.5458H46.5742V14.7851H44.5231L44.5238 16.6378Z" fill="white"/>
<path d="M52.7777 18.5133C52.2915 18.9969 51.6332 19.2684 50.9469 19.2684C50.2606 19.2684 49.6023 18.9969 49.1161 18.5133C48.6435 18.0134 48.3802 17.352 48.3802 16.6646C48.3802 15.9772 48.6435 15.3158 49.1161 14.8158C49.3564 14.5761 49.6418 14.386 49.9557 14.2564C50.2697 14.1268 50.6062 14.0602 50.946 14.0605C51.2857 14.0608 51.6221 14.128 51.9358 14.2581C52.2496 14.3883 52.5346 14.5789 52.7745 14.8191C53.248 15.3177 53.5123 15.9785 53.5129 16.6656C53.5135 17.3527 53.2504 18.0139 52.7777 18.5133ZM49.5895 18.0954C49.9496 18.454 50.4374 18.6553 50.9459 18.6553C51.4545 18.6553 51.9423 18.454 52.3024 18.0954C52.4872 17.9069 52.6317 17.6829 52.7271 17.4369C52.8226 17.1909 52.867 16.9282 52.8577 16.6646C52.867 16.401 52.8226 16.1382 52.7271 15.8923C52.6317 15.6463 52.4872 15.4223 52.3024 15.2338C51.9423 14.8752 51.4545 14.6739 50.9459 14.6739C50.4374 14.6739 49.9496 14.8752 49.5895 15.2338C49.2325 15.6251 49.0347 16.1353 49.0347 16.6646C49.0347 17.1939 49.2325 17.7041 49.5895 18.0954Z" fill="white"/>
<path d="M56.7426 19.2689C56.399 19.2751 56.0577 19.2118 55.7393 19.0829C55.4208 18.9541 55.1317 18.7623 54.8894 18.519C54.6471 18.2758 54.4565 17.9861 54.3292 17.6675C54.2018 17.3488 54.1404 17.0078 54.1484 16.6648C54.1404 16.3218 54.2018 15.9808 54.3292 15.6621C54.4565 15.3435 54.6471 15.0538 54.8894 14.8106C55.1317 14.5673 55.4208 14.3755 55.7393 14.2466C56.0577 14.1178 56.399 14.0545 56.7426 14.0607C57.0901 14.0498 57.4355 14.1174 57.7531 14.2585C58.0708 14.3995 58.3524 14.6104 58.577 14.8753L58.13 15.3074C57.9651 15.1001 57.7535 14.9347 57.5124 14.8247C57.2712 14.7147 57.0075 14.6632 56.7426 14.6744C56.4878 14.6684 56.2344 14.7141 55.9977 14.8086C55.761 14.9031 55.546 15.0445 55.3655 15.2243C55.1774 15.4127 55.0303 15.6379 54.9336 15.8859C54.8369 16.1338 54.7927 16.399 54.8037 16.6648C54.7927 16.9306 54.8369 17.1958 54.9336 17.4437C55.0303 17.6917 55.1774 17.9169 55.3655 18.1053C55.546 18.2849 55.7611 18.4262 55.9978 18.5206C56.2344 18.615 56.4878 18.6606 56.7426 18.6546C57.0362 18.6558 57.3265 18.5915 57.592 18.4662C57.8575 18.341 58.0916 18.158 58.2771 17.9308L58.7234 18.3764C58.4899 18.655 58.1967 18.8777 57.8655 19.0281C57.5137 19.1903 57.1301 19.2725 56.7426 19.2689Z" fill="white"/>
<path d="M61.3183 19.1573H60.6765V14.7843H59.282V14.1719H62.7135V14.7843H61.3183V19.1573Z" fill="white"/>
<path d="M67.1193 14.1719L65.2269 18.3768C65.1512 18.6281 64.9985 18.8494 64.7902 19.0094C64.5819 19.1694 64.3286 19.2601 64.0659 19.2687C63.8948 19.2647 63.7262 19.2269 63.5699 19.1573L63.7382 18.5655C63.84 18.624 63.9555 18.6548 64.073 18.655C64.1942 18.6626 64.3147 18.6324 64.418 18.5687C64.5191 18.4839 64.597 18.3749 64.6444 18.2519L64.8257 17.8546L63.1442 14.1719H63.8975L65.1321 17.0335H65.1598L66.3653 14.1719H67.1193Z" fill="white"/>
<path d="M67.8457 19.1573V14.1719H71.4577V19.1573H70.8159V14.7843H68.4868V19.1573H67.8457Z" fill="white"/>
<path d="M72.6013 19.1573V14.1719H73.2431V16.3091H75.7399V14.1719H76.3817V19.1573H75.7399V16.908H73.2431V19.1573H72.6013Z" fill="white"/>
<path d="M81.6093 18.5133C81.1231 18.9969 80.4647 19.2684 79.7785 19.2684C79.0922 19.2684 78.4338 18.9969 77.9476 18.5133C77.475 18.0134 77.2118 17.352 77.2118 16.6646C77.2118 15.9772 77.475 15.3158 77.9476 14.8158C78.188 14.5761 78.4733 14.386 78.7873 14.2564C79.1013 14.1268 79.4378 14.0602 79.7775 14.0605C80.1173 14.0608 80.4536 14.128 80.7674 14.2581C81.0811 14.3883 81.3661 14.5789 81.6061 14.8191C82.0796 15.3177 82.3438 15.9785 82.3444 16.6656C82.345 17.3527 82.0819 18.0139 81.6093 18.5133ZM78.4217 18.0954C78.7816 18.4541 79.2693 18.6555 79.7778 18.6555C80.2863 18.6555 80.774 18.4541 81.1339 18.0954C81.3187 17.9069 81.4632 17.6829 81.5587 17.4369C81.6541 17.1909 81.6986 16.9282 81.6893 16.6646C81.6986 16.401 81.6541 16.1382 81.5587 15.8923C81.4632 15.6463 81.3187 15.4223 81.1339 15.2338C80.774 14.8751 80.2863 14.6737 79.7778 14.6737C79.2693 14.6737 78.7816 14.8751 78.4217 15.2338C78.2371 15.4224 78.0927 15.6465 77.9972 15.8924C77.9018 16.1383 77.8572 16.401 77.8664 16.6646C77.8572 16.9282 77.9018 17.1909 77.9972 17.4368C78.0927 17.6827 78.2371 17.9068 78.4217 18.0954Z" fill="white"/>
<path d="M84.9685 19.1574V14.1721H86.7745C87.1498 14.1662 87.513 14.3045 87.7891 14.5584C87.9276 14.679 88.0378 14.8285 88.112 14.9963C88.1862 15.1641 88.2227 15.3461 88.2187 15.5295C88.2229 15.7524 88.158 15.9713 88.0329 16.156C87.9111 16.3368 87.7404 16.4795 87.5408 16.5675V16.5952C87.7819 16.6752 87.9935 16.8255 88.1484 17.0266C88.305 17.2294 88.3886 17.4789 88.3857 17.735C88.3897 17.927 88.3513 18.1176 88.2732 18.2932C88.1952 18.4688 88.0795 18.6251 87.9342 18.7511C87.6445 19.0166 87.2638 19.1611 86.8706 19.1549L84.9685 19.1574ZM85.6096 16.3093H86.7745C86.8829 16.3138 86.991 16.2946 87.0913 16.2531C87.1915 16.2116 87.2815 16.1488 87.355 16.0691C87.494 15.9306 87.5726 15.7429 87.5738 15.5469C87.575 15.3509 87.4987 15.1623 87.3615 15.0221C87.2911 14.9437 87.2044 14.8818 87.1074 14.8408C87.0104 14.7997 86.9056 14.7805 86.8003 14.7844H85.6071L85.6096 16.3093ZM85.6096 18.5451H86.8996C87.0124 18.5488 87.1247 18.5277 87.2284 18.4832C87.3321 18.4387 87.4246 18.3718 87.4995 18.2875C87.6449 18.1353 87.727 17.9337 87.7291 17.7234C87.7232 17.5019 87.6296 17.2918 87.4688 17.1391C87.308 16.9864 87.0931 16.9036 86.8713 16.9088H85.609L85.6096 18.5451Z" fill="white"/>
<defs>
<linearGradient id="paint0_linear" x1="26.4649" y1="152.363" x2="9.95536" y2="147.967" gradientUnits="userSpaceOnUse">
<stop stop-color="#00A0FF"/>
<stop offset="0.007" stop-color="#00A1FF"/>
<stop offset="0.26" stop-color="#00BEFF"/>
<stop offset="0.512" stop-color="#00D2FF"/>
<stop offset="0.76" stop-color="#00DFFF"/>
<stop offset="1" stop-color="#00E3FF"/>
</linearGradient>
<linearGradient id="paint1_linear" x1="36.4824" y1="142.988" x2="16.3426" y2="142.988" gradientUnits="userSpaceOnUse">
<stop stop-color="#FFE000"/>
<stop offset="0.409" stop-color="#FFBD00"/>
<stop offset="0.775" stop-color="#FFA500"/>
<stop offset="1" stop-color="#FF9C00"/>
</linearGradient>
<linearGradient id="paint2_linear" x1="28.9783" y1="141.168" x2="15.7503" y2="118.859" gradientUnits="userSpaceOnUse">
<stop stop-color="#FF3A44"/>
<stop offset="1" stop-color="#C31162"/>
</linearGradient>
<linearGradient id="paint3_linear" x1="14.3957" y1="159.554" x2="20.307" y2="149.595" gradientUnits="userSpaceOnUse">
<stop stop-color="#32A071"/>
<stop offset="0.068" stop-color="#2DA771"/>
<stop offset="0.476" stop-color="#15CF74"/>
<stop offset="0.801" stop-color="#06E775"/>
<stop offset="1" stop-color="#00F076"/>
</linearGradient>
</defs>
</svg>
