<svg width="142" height="142" viewBox="0 0 142 142" fill="none" xmlns="http://www.w3.org/2000/svg">
<path d="M71 142C110.212 142 142 110.212 142 71C142 31.7878 110.212 0 71 0C31.7878 0 0 31.7878 0 71C0 110.212 31.7878 142 71 142Z" fill="#F3F7F9"/>
<path d="M71 128C102.48 128 128 102.48 128 71C128 39.5198 102.48 14 71 14C39.5198 14 14 39.5198 14 71C14 102.48 39.5198 128 71 128Z" fill="#DDE8EC"/>
<path d="M71 114C94.7482 114 114 94.7482 114 71C114 47.2518 94.7482 28 71 28C47.2518 28 28 47.2518 28 71C28 94.7482 47.2518 114 71 114Z" fill="#CEDEE1"/>
<path d="M82.452 121.938L86.1 134.705H56.919L60.567 121.938H82.452Z" fill="#545C66"/>
<path d="M56.926 136.527C56.757 136.527 56.5888 136.503 56.426 136.458C55.9611 136.325 55.5679 136.013 55.3327 135.59C55.0974 135.168 55.0393 134.669 55.171 134.204L58.819 121.439C58.9516 120.974 59.2636 120.58 59.6864 120.345C60.1092 120.11 60.6082 120.052 61.0735 120.185C61.5388 120.317 61.9324 120.629 62.1677 121.052C62.4029 121.475 62.4606 121.974 62.328 122.439L58.679 135.203C58.5702 135.584 58.3403 135.92 58.024 136.158C57.7078 136.397 57.3223 136.527 56.926 136.527Z" fill="#545C66"/>
<path d="M86.081 136.527C85.6847 136.526 85.2992 136.397 84.983 136.158C84.6667 135.919 84.4368 135.584 84.328 135.203L80.681 122.438C80.5484 121.973 80.6061 121.474 80.8413 121.051C81.0766 120.628 81.4702 120.316 81.9355 120.183C82.4008 120.051 82.8998 120.108 83.3226 120.344C83.7454 120.579 84.0574 120.973 84.19 121.438L87.838 134.203C87.9703 134.668 87.9124 135.167 87.677 135.59C87.4417 136.012 87.0482 136.324 86.583 136.457C86.4202 136.502 86.252 136.525 86.083 136.526L86.081 136.527Z" fill="#545C66"/>
<path d="M22.315 61.9309V114.818H120.703V61.9309H22.315Z" fill="#E6E9ED"/>
<path d="M120.703 51.124H22.315V47.472C22.3174 46.5059 22.7019 45.58 23.3847 44.8965C24.0674 44.213 24.9929 43.8274 25.959 43.824H117.059C118.025 43.8274 118.951 44.213 119.633 44.8965C120.316 45.58 120.701 46.5059 120.703 47.472V51.124Z" fill="#656D78"/>
<path d="M120.699 49.3C120.46 49.3001 120.222 49.253 120.001 49.1614C119.78 49.0697 119.579 48.9354 119.41 48.7659C119.24 48.5965 119.106 48.3954 119.015 48.174C118.923 47.9527 118.877 47.7155 118.877 47.476C118.877 46.9926 118.685 46.529 118.343 46.1869C118.002 45.8449 117.538 45.6525 117.055 45.652H25.952C25.4695 45.6525 25.0068 45.8442 24.6653 46.1852C24.3238 46.5261 24.1313 46.9885 24.13 47.471C24.13 47.9546 23.9379 48.4184 23.5959 48.7604C23.2539 49.1024 22.7901 49.2945 22.3065 49.2945C21.8229 49.2945 21.3591 49.1024 21.0171 48.7604C20.6751 48.4184 20.483 47.9546 20.483 47.471C20.4843 46.0208 21.0609 44.6303 22.0862 43.6046C23.1115 42.5789 24.5018 42.0019 25.952 42H117.052C118.502 42.0026 119.891 42.5801 120.916 43.6056C121.941 44.6312 122.517 46.0213 122.518 47.471C122.519 47.7106 122.473 47.9481 122.382 48.1699C122.291 48.3916 122.157 48.5932 121.988 48.7631C121.819 48.933 121.618 49.0679 121.397 49.16C121.176 49.2522 120.939 49.2997 120.699 49.3Z" fill="#656D78"/>
<path d="M22.31 52.9409C22.0702 52.9416 21.8327 52.8949 21.611 52.8036C21.3893 52.7123 21.1878 52.5781 21.0181 52.4087C20.8483 52.2394 20.7137 52.0382 20.6219 51.8167C20.5301 51.5952 20.4829 51.3577 20.483 51.1179V47.4719C20.483 47.2324 20.5302 46.9952 20.6218 46.7739C20.7135 46.5526 20.8479 46.3516 21.0172 46.1822C21.1866 46.0128 21.3877 45.8785 21.609 45.7868C21.8303 45.6951 22.0675 45.6479 22.307 45.6479C22.5465 45.6479 22.7837 45.6951 23.005 45.7868C23.2263 45.8785 23.4274 46.0128 23.5968 46.1822C23.7661 46.3516 23.9005 46.5526 23.9922 46.7739C24.0838 46.9952 24.131 47.2324 24.131 47.4719V51.1179C24.1311 51.3572 24.0841 51.5942 23.9927 51.8153C23.9013 52.0364 23.7672 52.2373 23.5981 52.4066C23.429 52.5759 23.2282 52.7102 23.0072 52.8019C22.7862 52.8936 22.5493 52.9408 22.31 52.9409Z" fill="#656D78"/>
<path d="M22.388 114.95H120.703V118.598C120.701 119.564 120.316 120.49 119.633 121.173C118.951 121.857 118.025 122.243 117.059 122.246H25.959C24.9929 122.243 24.0674 121.857 23.3847 121.173C22.7019 120.49 22.3174 119.564 22.315 118.598V114.95H22.388Z" fill="#656D78"/>
<path d="M117.055 124.069H25.952C24.5018 124.067 23.1115 123.49 22.0862 122.464C21.0609 121.439 20.4843 120.048 20.483 118.598C20.483 118.359 20.5301 118.122 20.6217 117.901C20.7133 117.68 20.8475 117.479 21.0167 117.31C21.1858 117.14 21.3867 117.006 21.6078 116.915C21.8288 116.823 22.0657 116.776 22.305 116.776C22.5443 116.776 22.7812 116.823 23.0023 116.915C23.2233 117.006 23.4242 117.14 23.5934 117.31C23.7625 117.479 23.8967 117.68 23.9883 117.901C24.0799 118.122 24.127 118.359 24.127 118.598C24.127 119.081 24.3189 119.545 24.6605 119.887C25.0022 120.229 25.4656 120.421 25.949 120.422H117.049C117.532 120.421 117.996 120.229 118.337 119.887C118.679 119.545 118.871 119.081 118.871 118.598C118.871 118.115 119.063 117.651 119.405 117.31C119.746 116.968 120.21 116.776 120.693 116.776C121.176 116.776 121.64 116.968 121.981 117.31C122.323 117.651 122.515 118.115 122.515 118.598C122.514 120.047 121.938 121.436 120.915 122.461C119.892 123.487 118.504 124.065 117.055 124.069Z" fill="#656D78"/>
<path d="M22.31 120.421C22.0701 120.422 21.8325 120.375 21.6108 120.284C21.389 120.192 21.1875 120.058 21.0177 119.888C20.848 119.719 20.7134 119.518 20.6216 119.296C20.5298 119.074 20.4827 118.837 20.483 118.597V62.062C20.483 61.5783 20.6752 61.1143 21.0172 60.7723C21.3593 60.4302 21.8232 60.238 22.307 60.238C22.7908 60.238 23.2547 60.4302 23.5968 60.7723C23.9388 61.1143 24.131 61.5783 24.131 62.062V118.597C24.1313 118.836 24.0844 119.073 23.993 119.295C23.9016 119.516 23.7675 119.717 23.5984 119.886C23.4293 120.056 23.2285 120.19 23.0074 120.282C22.7863 120.374 22.5494 120.421 22.31 120.421Z" fill="#656D78"/>
<path d="M120.698 120.421C120.458 120.421 120.221 120.375 119.999 120.283C119.778 120.192 119.577 120.057 119.407 119.888C119.237 119.718 119.103 119.517 119.011 119.296C118.92 119.074 118.873 118.837 118.873 118.597V62.062C118.873 61.5783 119.065 61.1143 119.407 60.7723C119.749 60.4302 120.213 60.238 120.697 60.238C121.181 60.238 121.645 60.4302 121.987 60.7723C122.329 61.1143 122.521 61.5783 122.521 62.062V118.597C122.521 118.837 122.474 119.074 122.383 119.295C122.291 119.516 122.157 119.718 121.988 119.887C121.818 120.056 121.617 120.191 121.396 120.282C121.175 120.374 120.938 120.421 120.698 120.421Z" fill="#656D78"/>
<path d="M120.698 52.9409C120.458 52.9413 120.221 52.8945 120 52.803C119.778 52.7116 119.577 52.5773 119.407 52.408C119.238 52.2387 119.103 52.0376 119.012 51.8162C118.92 51.5948 118.873 51.3576 118.873 51.1179V47.4719C118.873 46.9882 119.065 46.5243 119.407 46.1822C119.749 45.8401 120.213 45.6479 120.697 45.6479C121.181 45.6479 121.645 45.8401 121.987 46.1822C122.329 46.5243 122.521 46.9882 122.521 47.4719V51.1179C122.521 51.3574 122.474 51.5945 122.382 51.8157C122.291 52.037 122.157 52.238 121.987 52.4073C121.818 52.5766 121.617 52.7109 121.396 52.8024C121.175 52.894 120.937 52.9411 120.698 52.9409Z" fill="#656D78"/>
<path d="M128.005 54.7661V62.0661H15.005V54.7661H128.005Z" fill="#ED5565"/>
<path d="M20.485 49.2939H122.533L128.005 54.7639H15.005L20.485 49.2939Z" fill="#DA4453"/>
<path d="M126.174 63.824H16.826C16.3423 63.824 15.8783 63.6319 15.5363 63.2898C15.1942 62.9477 15.002 62.4838 15.002 62C15.002 61.5163 15.1942 61.0523 15.5363 60.7103C15.8783 60.3682 16.3423 60.176 16.826 60.176H126.174C126.658 60.176 127.122 60.3682 127.464 60.7103C127.806 61.0523 127.998 61.5163 127.998 62C127.998 62.4838 127.806 62.9477 127.464 63.2898C127.122 63.6319 126.658 63.824 126.174 63.824Z" fill="#ED5565"/>
<path d="M71.558 121.093C71.0815 121.085 70.6271 120.89 70.2922 120.551C69.9572 120.212 69.7681 119.756 69.7655 119.279C69.7629 118.803 69.9469 118.344 70.2782 118.001C70.6094 117.659 71.0616 117.46 71.538 117.446H71.558C72.0417 117.446 72.5057 117.638 72.8477 117.98C73.1898 118.322 73.382 118.786 73.382 119.27C73.382 119.754 73.1898 120.218 72.8477 120.56C72.5057 120.902 72.0417 121.094 71.558 121.094V121.093Z" fill="#545C66"/>
<path d="M29.611 67.394C29.1276 67.3954 28.6645 67.588 28.3227 67.9297C27.9809 68.2715 27.7883 68.7347 27.787 69.218V109.34C27.7883 109.823 27.9809 110.287 28.3227 110.628C28.6645 110.97 29.1276 111.163 29.611 111.164H67.911C68.3943 111.163 68.8575 110.97 69.1993 110.628C69.5411 110.287 69.7337 109.823 69.735 109.34V69.217C69.7334 68.7337 69.5406 68.2706 69.1986 67.929C68.8566 67.5874 68.3933 67.3951 67.91 67.394H29.611Z" fill="white"/>
<path d="M49.639 103.826H40.52C40.0363 103.826 39.5723 103.634 39.2303 103.292C38.8882 102.95 38.696 102.486 38.696 102.002C38.696 101.518 38.8882 101.054 39.2303 100.712C39.5723 100.37 40.0363 100.178 40.52 100.178H49.639C50.1228 100.178 50.5867 100.37 50.9288 100.712C51.2709 101.054 51.463 101.518 51.463 102.002C51.463 102.486 51.2709 102.95 50.9288 103.292C50.5867 103.634 50.1228 103.826 49.639 103.826Z" fill="#656D78"/>
<path d="M56.925 102.008H55.103C54.6192 102.008 54.1553 101.816 53.8132 101.474C53.4712 101.132 53.279 100.668 53.279 100.184C53.279 99.7004 53.4712 99.2364 53.8132 98.8943C54.1553 98.5523 54.6192 98.3601 55.103 98.3601H56.925C57.4087 98.3601 57.8727 98.5523 58.2148 98.8943C58.5568 99.2364 58.749 99.7004 58.749 100.184C58.749 100.668 58.5568 101.132 58.2148 101.474C57.8727 101.816 57.4087 102.008 56.925 102.008Z" fill="#A0D468"/>
<path d="M56.926 105.652C56.5868 105.653 56.2541 105.558 55.9654 105.38C55.6767 105.202 55.4435 104.947 55.292 104.643L53.47 100.992C53.2536 100.559 53.2179 100.058 53.3709 99.5993C53.5238 99.1403 53.8528 98.7609 54.2855 98.5445C54.7182 98.3281 55.2192 98.2924 55.6782 98.4453C56.1372 98.5983 56.5166 98.9273 56.733 99.36L58.555 103.008C58.6947 103.286 58.7609 103.595 58.7474 103.906C58.7339 104.217 58.6411 104.519 58.4779 104.784C58.3147 105.049 58.0864 105.268 57.8148 105.42C57.5432 105.572 57.2372 105.652 56.926 105.652Z" fill="#A0D468"/>
<path d="M56.925 105.644H55.101C54.6173 105.644 54.1533 105.452 53.8113 105.11C53.4692 104.768 53.277 104.304 53.277 103.82C53.277 103.336 53.4692 102.872 53.8113 102.53C54.1533 102.188 54.6173 101.996 55.101 101.996H56.925C57.4088 101.996 57.8727 102.188 58.2148 102.53C58.5569 102.872 58.749 103.336 58.749 103.82C58.749 104.304 58.5569 104.768 58.2148 105.11C57.8727 105.452 57.4088 105.644 56.925 105.644Z" fill="#A0D468"/>
<path d="M48.719 80.189C48.4797 80.189 48.2427 80.1419 48.0216 80.0502C47.8004 79.9586 47.5995 79.8243 47.4303 79.655C47.2611 79.4857 47.1269 79.2847 47.0354 79.0636C46.9439 78.8424 46.8969 78.6054 46.897 78.366V76.542C46.897 76.0583 47.0892 75.5943 47.4313 75.2523C47.7733 74.9102 48.2373 74.718 48.721 74.718C49.2048 74.718 49.6687 74.9102 50.0108 75.2523C50.3529 75.5943 50.545 76.0583 50.545 76.542V78.366C50.5452 78.6057 50.498 78.8431 50.4062 79.0645C50.3145 79.2859 50.1799 79.4871 50.0103 79.6564C49.8407 79.8258 49.6393 79.96 49.4177 80.0514C49.1962 80.1428 48.9587 80.1895 48.719 80.189Z" fill="#AAB2BD"/>
<path d="M60.573 92.9379H36.868V88.3789C36.8536 86.813 37.1496 85.2598 37.7389 83.8089C38.3282 82.358 39.1991 81.0383 40.3013 79.9259C41.4036 78.8135 42.7152 77.9305 44.1606 77.3279C45.606 76.7253 47.1565 76.415 48.7225 76.415C50.2885 76.415 51.8389 76.7253 53.2843 77.3279C54.7297 77.9305 56.0414 78.8135 57.1437 79.9259C58.2459 81.0383 59.1168 82.358 59.7061 83.8089C60.2954 85.2598 60.5914 86.813 60.577 88.3789L60.573 92.9379Z" fill="#CCD1D9"/>
<path d="M48.731 76.5249C47.8085 76.5279 46.8895 76.6393 45.993 76.8569C48.5869 77.4722 50.8976 78.9441 52.5516 81.0349C54.2056 83.1256 55.1062 85.713 55.108 88.3789V92.9379H60.588V88.3789C60.588 86.822 60.2813 85.2803 59.6854 83.8419C59.0895 82.4035 58.2161 81.0966 57.115 79.9958C56.014 78.895 54.7068 78.0219 53.2683 77.4264C51.8298 76.8308 50.288 76.5245 48.731 76.5249Z" fill="#AAB2BD"/>
<path d="M60.573 94.7291H36.873C36.3893 94.7291 35.9253 94.5369 35.5832 94.1948C35.2412 93.8528 35.049 93.3888 35.049 92.9051C35.049 92.4213 35.2412 91.9574 35.5832 91.6153C35.9253 91.2732 36.3893 91.0811 36.873 91.0811H60.573C61.0568 91.0811 61.5207 91.2732 61.8628 91.6153C62.2048 91.9574 62.397 92.4213 62.397 92.9051C62.397 93.3888 62.2048 93.8528 61.8628 94.1948C61.5207 94.5369 61.0568 94.7291 60.573 94.7291Z" fill="#E6E9ED"/>
<path d="M75.154 67.394C74.6707 67.3954 74.2075 67.588 73.8657 67.9297C73.5239 68.2715 73.3313 68.7347 73.33 69.218V109.34C73.3313 109.823 73.5239 110.287 73.8657 110.628C74.2075 110.97 74.6707 111.163 75.154 111.164H113.454C113.937 111.163 114.401 110.97 114.742 110.628C115.084 110.287 115.277 109.823 115.278 109.34V69.217C115.276 68.7337 115.084 68.2706 114.742 67.929C114.4 67.5874 113.936 67.3951 113.453 67.394H75.154Z" fill="white"/>
<path d="M95.234 103.826H86.115C85.6313 103.826 85.1673 103.634 84.8253 103.292C84.4832 102.95 84.291 102.486 84.291 102.002C84.291 101.518 84.4832 101.054 84.8253 100.712C85.1673 100.37 85.6313 100.178 86.115 100.178H95.234C95.7178 100.178 96.1817 100.37 96.5238 100.712C96.8658 101.054 97.058 101.518 97.058 102.002C97.058 102.486 96.8658 102.95 96.5238 103.292C96.1817 103.634 95.7178 103.826 95.234 103.826Z" fill="#656D78"/>
<path d="M102.522 102.008H100.7C100.216 102.008 99.7523 101.816 99.4103 101.474C99.0682 101.132 98.876 100.668 98.876 100.184C98.876 99.7004 99.0682 99.2364 99.4103 98.8943C99.7523 98.5523 100.216 98.3601 100.7 98.3601H102.522C103.006 98.3601 103.47 98.5523 103.812 98.8943C104.154 99.2364 104.346 99.7004 104.346 100.184C104.346 100.668 104.154 101.132 103.812 101.474C103.47 101.816 103.006 102.008 102.522 102.008Z" fill="#A0D468"/>
<path d="M102.524 105.652C102.185 105.653 101.852 105.558 101.563 105.38C101.275 105.202 101.041 104.947 100.89 104.643L99.068 100.992C98.9608 100.778 98.8969 100.544 98.8799 100.306C98.8629 100.067 98.8931 99.8266 98.9688 99.5993C99.0446 99.3721 99.1643 99.1619 99.3213 98.981C99.4782 98.8 99.6692 98.6517 99.8835 98.5445C100.098 98.4373 100.331 98.3734 100.57 98.3564C100.809 98.3394 101.049 98.3696 101.276 98.4453C101.503 98.5211 101.714 98.6408 101.895 98.7978C102.076 98.9547 102.224 99.1457 102.331 99.36L104.151 103.007C104.258 103.221 104.322 103.455 104.339 103.693C104.356 103.932 104.326 104.173 104.251 104.4C104.175 104.627 104.055 104.837 103.898 105.018C103.741 105.199 103.55 105.348 103.336 105.455C103.084 105.582 102.805 105.648 102.523 105.648L102.524 105.652Z" fill="#A0D468"/>
<path d="M102.523 105.644H100.699C100.215 105.644 99.7513 105.452 99.4092 105.11C99.0672 104.768 98.875 104.304 98.875 103.82C98.875 103.336 99.0672 102.872 99.4092 102.53C99.7513 102.188 100.215 101.996 100.699 101.996H102.523C103.007 101.996 103.471 102.188 103.813 102.53C104.155 102.872 104.347 103.336 104.347 103.82C104.347 104.304 104.155 104.768 103.813 105.11C103.471 105.452 103.007 105.644 102.523 105.644Z" fill="#A0D468"/>
<path d="M94.316 80.189C94.0764 80.1893 93.8391 80.1423 93.6177 80.0507C93.3963 79.9591 93.1951 79.8248 93.0257 79.6554C92.8562 79.4859 92.7219 79.2848 92.6303 79.0633C92.5387 78.8419 92.4917 78.6046 92.492 78.365V76.542C92.492 76.0583 92.6842 75.5943 93.0262 75.2523C93.3683 74.9102 93.8323 74.718 94.316 74.718C94.7998 74.718 95.2637 74.9102 95.6058 75.2523C95.9478 75.5943 96.14 76.0583 96.14 76.542V78.366C96.1401 78.6055 96.093 78.8427 96.0014 79.064C95.9098 79.2853 95.7754 79.4864 95.606 79.6557C95.4366 79.825 95.2355 79.9593 95.0141 80.0508C94.7927 80.1423 94.5555 80.1893 94.316 80.189Z" fill="#AAB2BD"/>
<path d="M106.164 92.9379H82.455V88.3789C82.4406 86.813 82.7367 85.2598 83.3259 83.8089C83.9152 82.358 84.7862 81.0383 85.8884 79.9259C86.9906 78.8135 88.3023 77.9305 89.7477 77.3279C91.1931 76.7253 92.7435 76.415 94.3095 76.415C95.8755 76.415 97.426 76.7253 98.8714 77.3279C100.317 77.9305 101.628 78.8135 102.731 79.9259C103.833 81.0383 104.704 82.358 105.293 83.8089C105.882 85.2598 106.178 86.813 106.164 88.3789V92.9379Z" fill="#CCD1D9"/>
<path d="M94.325 76.5249C93.4025 76.5279 92.4835 76.6393 91.587 76.8569C94.1811 77.4722 96.4919 78.9443 98.1459 81.0353C99.7999 83.1262 100.7 85.7139 100.702 88.3799V92.9389H106.179V88.3789C106.179 85.235 104.93 82.2199 102.707 79.9969C100.484 77.7738 97.4689 76.5249 94.325 76.5249Z" fill="#AAB2BD"/>
<path d="M106.162 94.7291H82.462C81.9782 94.7291 81.5143 94.5369 81.1722 94.1948C80.8302 93.8528 80.638 93.3888 80.638 92.9051C80.638 92.4213 80.8302 91.9574 81.1722 91.6153C81.5143 91.2732 81.9782 91.0811 82.462 91.0811H106.162C106.646 91.0811 107.11 91.2732 107.452 91.6153C107.794 91.9574 107.986 92.4213 107.986 92.9051C107.986 93.3888 107.794 93.8528 107.452 94.1948C107.11 94.5369 106.646 94.7291 106.162 94.7291Z" fill="#E6E9ED"/>
<path d="M93.389 138.35C93.3866 136.9 92.8091 135.509 91.7831 134.484C90.7572 133.459 89.3665 132.882 87.916 132.881H55.089C53.6386 132.882 52.2479 133.459 51.2219 134.484C50.1959 135.509 49.6184 136.9 49.616 138.35V141.999H93.389V138.35Z" fill="#656D78"/>
<path d="M28.5 31C30.9853 31 33 28.9853 33 26.5C33 24.0147 30.9853 22 28.5 22C26.0147 22 24 24.0147 24 26.5C24 28.9853 26.0147 31 28.5 31Z" stroke="#FC6930" stroke-width="2"/>
<path d="M125.5 137C127.985 137 130 134.985 130 132.5C130 130.015 127.985 128 125.5 128C123.015 128 121 130.015 121 132.5C121 134.985 123.015 137 125.5 137Z" stroke="#FFCE54" stroke-width="2"/>
<path d="M83.5 33C84.8807 33 86 31.8807 86 30.5C86 29.1193 84.8807 28 83.5 28C82.1193 28 81 29.1193 81 30.5C81 31.8807 82.1193 33 83.5 33Z" stroke="#A0D468" stroke-width="2"/>
<path d="M104.5 19C106.433 19 108 17.433 108 15.5C108 13.567 106.433 12 104.5 12C102.567 12 101 13.567 101 15.5C101 17.433 102.567 19 104.5 19Z" stroke="#FFCE54" stroke-width="2"/>
<path d="M53.9999 13.0021L58.9998 17.9978" stroke="#ED5565" stroke-width="2" stroke-linecap="round"/>
<path d="M54 17.998L59 13.0023" stroke="#ED5565" stroke-width="2" stroke-linecap="round"/>
<path d="M134 78.0021L139 82.9978" stroke="#ED5565" stroke-width="2" stroke-linecap="round"/>
<path d="M134 82.998L139 78.0023" stroke="#ED5565" stroke-width="2" stroke-linecap="round"/>
<path d="M2.99989 60.0021L7.99984 64.9978" stroke="#FFCE54" stroke-width="2" stroke-linecap="round"/>
<path d="M3.00003 64.998L7.99998 60.0023" stroke="#FFCE54" stroke-width="2" stroke-linecap="round"/>
</svg>
