<svg width="142" height="142" viewBox="0 0 142 142" fill="none" xmlns="http://www.w3.org/2000/svg">
<path d="M71 142C110.212 142 142 110.212 142 71C142 31.7878 110.212 0 71 0C31.7878 0 0 31.7878 0 71C0 110.212 31.7878 142 71 142Z" fill="#F3F7F9"/>
<path d="M71 128C102.48 128 128 102.48 128 71C128 39.5198 102.48 14 71 14C39.5198 14 14 39.5198 14 71C14 102.48 39.5198 128 71 128Z" fill="#DDE8EC"/>
<path d="M71 114C94.7482 114 114 94.7482 114 71C114 47.2518 94.7482 28 71 28C47.2518 28 28 47.2518 28 71C28 94.7482 47.2518 114 71 114Z" fill="#CEDEE1"/>
<path d="M55.6711 48.689C55.4513 48.6895 55.2335 48.6467 55.0303 48.5628C54.8271 48.479 54.6424 48.3559 54.4869 48.2006C54.3314 48.0452 54.2081 47.8607 54.124 47.6576C54.0399 47.4545 53.9968 47.2368 53.9971 47.017V45.345C53.9971 44.421 54.7461 42 55.6711 42C56.5961 42 57.3431 44.421 57.3431 45.345V47.017C57.3433 47.2366 57.3003 47.4542 57.2163 47.6572C57.1324 47.8601 57.0093 48.0446 56.8539 48.1999C56.6986 48.3552 56.5142 48.4783 56.3112 48.5623C56.1083 48.6462 55.8907 48.6893 55.6711 48.689Z" fill="#DA4453"/>
<path d="M77.516 115.25V142H20.672C20.2287 141.999 19.8036 141.823 19.4899 141.51C19.1762 141.196 18.9994 140.771 18.998 140.328V128.628C18.9971 126.871 19.3425 125.131 20.0144 123.508C20.6863 121.884 21.6716 120.409 22.914 119.167C24.1563 117.924 25.6313 116.939 27.2547 116.267C28.8781 115.595 30.618 115.249 32.375 115.25H44.075L50.763 118.594L55.779 116.922L60.798 118.594L67.485 115.25H77.516Z" fill="#ED5565"/>
<path d="M113.982 97.8549C113.763 97.8548 113.545 97.8114 113.343 97.7273C113.14 97.6432 112.956 97.52 112.801 97.3647C112.646 97.2095 112.523 97.0252 112.439 96.8224C112.356 96.6196 112.313 96.4023 112.313 96.1829C112.313 95.1949 112.118 94.2166 111.74 93.3038C111.362 92.391 110.808 91.5616 110.109 90.863C109.411 90.1644 108.581 89.6102 107.669 89.2321C106.756 88.854 105.777 88.6594 104.789 88.6594C103.801 88.6594 102.823 88.854 101.91 89.2321C100.998 89.6102 100.168 90.1644 99.4696 90.863C98.771 91.5616 98.2168 92.391 97.8387 93.3038C97.4606 94.2166 97.266 95.1949 97.266 96.1829C97.266 96.6264 97.0898 97.0517 96.7763 97.3652C96.4627 97.6788 96.0374 97.8549 95.594 97.8549C95.1506 97.8549 94.7253 97.6788 94.4117 97.3652C94.0982 97.0517 93.922 96.6264 93.922 96.1829C93.922 93.3007 95.067 90.5365 97.105 88.4984C99.1431 86.4604 101.907 85.3154 104.789 85.3154C107.672 85.3154 110.436 86.4604 112.474 88.4984C114.512 90.5365 115.657 93.3007 115.657 96.1829C115.657 96.4028 115.614 96.6206 115.53 96.8238C115.446 97.027 115.322 97.2115 115.167 97.3669C115.011 97.5222 114.826 97.6453 114.623 97.7291C114.42 97.8128 114.202 97.8556 113.982 97.8549Z" fill="#CCD1D9"/>
<path d="M95.676 105.346C95.4564 105.346 95.2388 105.303 95.0359 105.219C94.8329 105.135 94.6485 105.012 94.4932 104.857C94.3378 104.701 94.2147 104.517 94.1308 104.314C94.0468 104.111 94.0038 103.894 94.004 103.674V96.1539C94.004 95.7105 94.1802 95.2852 94.4937 94.9717C94.8073 94.6581 95.2326 94.4819 95.676 94.4819C96.1195 94.4819 96.5448 94.6581 96.8583 94.9717C97.1719 95.2852 97.348 95.7105 97.348 96.1539V103.674C97.3483 103.894 97.3052 104.111 97.2213 104.314C97.1374 104.517 97.0142 104.701 96.8589 104.857C96.7036 105.012 96.5192 105.135 96.3162 105.219C96.1132 105.303 95.8957 105.346 95.676 105.346Z" fill="#CCD1D9"/>
<path d="M113.982 105.346C113.762 105.346 113.545 105.303 113.342 105.219C113.139 105.135 112.954 105.012 112.799 104.857C112.644 104.701 112.521 104.517 112.437 104.314C112.353 104.111 112.31 103.894 112.31 103.674V96.1539C112.31 95.7105 112.486 95.2852 112.8 94.9717C113.113 94.6581 113.539 94.4819 113.982 94.4819C114.426 94.4819 114.851 94.6581 115.164 94.9717C115.478 95.2852 115.654 95.7105 115.654 96.1539V103.674C115.654 103.894 115.611 104.111 115.527 104.314C115.443 104.517 115.32 104.701 115.165 104.857C115.01 105.012 114.825 105.135 114.622 105.219C114.419 105.303 114.202 105.346 113.982 105.346Z" fill="#CCD1D9"/>
<path d="M122.328 101.874H83.8751C83.6557 101.874 83.4384 101.917 83.2358 102.001C83.0331 102.085 82.8489 102.208 82.6939 102.364C82.5388 102.519 82.4158 102.703 82.3319 102.906C82.248 103.108 82.2049 103.326 82.2051 103.545V140.326C82.2048 140.546 82.2479 140.763 82.3318 140.966C82.4157 141.169 82.5389 141.354 82.6942 141.509C82.8495 141.664 83.0339 141.787 83.2369 141.871C83.4399 141.955 83.6574 141.998 83.8771 141.998H122.328C122.548 141.999 122.766 141.956 122.97 141.873C123.173 141.789 123.358 141.666 123.514 141.511C123.67 141.355 123.794 141.171 123.878 140.967C123.962 140.764 124.005 140.546 124.005 140.326V103.545C124.005 103.325 123.962 103.107 123.878 102.904C123.793 102.701 123.67 102.516 123.514 102.361C123.358 102.206 123.173 102.083 122.97 101.999C122.766 101.916 122.548 101.873 122.328 101.874Z" fill="#F7C292"/>
<path d="M107.288 97.8549C107.068 97.8552 106.851 97.8121 106.648 97.7282C106.445 97.6443 106.261 97.5211 106.105 97.3658C105.95 97.2105 105.827 97.0261 105.743 96.8231C105.659 96.6201 105.616 96.4026 105.616 96.1829C105.616 94.1876 104.823 92.2739 103.413 90.863C102.002 89.4521 100.088 88.6594 98.0926 88.6594C96.0972 88.6594 94.1836 89.4521 92.7727 90.863C91.3618 92.2739 90.5691 94.1876 90.5691 96.1829C90.5691 96.6264 90.3929 97.0517 90.0794 97.3652C89.7658 97.6788 89.3405 97.8549 88.8971 97.8549C88.4537 97.8549 88.0284 97.6788 87.7148 97.3652C87.4013 97.0517 87.2251 96.6264 87.2251 96.1829C87.2251 93.3007 88.3701 90.5365 90.4081 88.4984C92.4462 86.4604 95.2104 85.3154 98.0926 85.3154C100.975 85.3154 103.739 86.4604 105.777 88.4984C107.815 90.5365 108.96 93.3007 108.96 96.1829C108.96 96.4026 108.917 96.6201 108.833 96.8231C108.749 97.0261 108.626 97.2105 108.471 97.3658C108.316 97.5211 108.131 97.6443 107.928 97.7282C107.725 97.8121 107.508 97.8552 107.288 97.8549Z" fill="#E6E9ED"/>
<path d="M89.0031 105.346C88.7833 105.346 88.5655 105.304 88.3623 105.22C88.1591 105.136 87.9745 105.013 87.8189 104.858C87.6634 104.702 87.5401 104.518 87.456 104.315C87.372 104.111 87.3288 103.894 87.3291 103.674V96.1539C87.3291 95.7105 87.5053 95.2852 87.8188 94.9717C88.1324 94.6581 88.5577 94.4819 89.0011 94.4819C89.4445 94.4819 89.8698 94.6581 90.1834 94.9717C90.4969 95.2852 90.6731 95.7105 90.6731 96.1539V103.674C90.6734 103.893 90.6304 104.111 90.5466 104.314C90.4627 104.516 90.3398 104.701 90.1847 104.856C90.0296 105.011 89.8454 105.135 89.6426 105.219C89.4399 105.303 89.2226 105.346 89.0031 105.346Z" fill="#E6E9ED"/>
<path d="M107.288 105.346C107.068 105.346 106.85 105.304 106.647 105.22C106.444 105.136 106.259 105.013 106.104 104.858C105.948 104.702 105.825 104.518 105.741 104.315C105.657 104.111 105.614 103.894 105.614 103.674V96.1539C105.614 95.7105 105.79 95.2852 106.104 94.9717C106.417 94.6581 106.843 94.4819 107.286 94.4819C107.729 94.4819 108.155 94.6581 108.468 94.9717C108.782 95.2852 108.958 95.7105 108.958 96.1539V103.674C108.958 103.893 108.915 104.111 108.831 104.314C108.748 104.516 108.625 104.701 108.47 104.856C108.314 105.011 108.13 105.135 107.928 105.219C107.725 105.303 107.507 105.346 107.288 105.346Z" fill="#E6E9ED"/>
<path d="M84.2031 77.0149H27.3571C28.3453 76.0949 29.4742 75.3387 30.7011 74.7749C34.5161 72.8349 42.1051 70.3269 55.7811 70.3269C69.4571 70.3269 77.0491 72.8349 80.8571 74.7739C82.0853 75.3367 83.2151 76.0933 84.2031 77.0149Z" fill="#656D78"/>
<path d="M80.86 76.9451V85.3041C80.86 91.9553 78.2178 98.3341 73.5147 103.037C68.8116 107.74 62.4327 110.383 55.7815 110.383C49.1303 110.383 42.7515 107.74 38.0483 103.037C33.3452 98.3341 30.703 91.9553 30.703 85.3041V76.9451H80.86Z" fill="#EAC6BB"/>
<path d="M75.699 76.9451V85.3041C75.7088 91.5225 73.4029 97.5217 69.2305 102.133C65.0582 106.743 59.3184 109.635 53.13 110.245C53.956 110.327 54.789 110.38 55.638 110.38C58.932 110.383 62.1942 109.736 65.238 108.477C68.2819 107.218 71.0476 105.371 73.377 103.042C75.7064 100.713 77.5537 97.9474 78.8134 94.9038C80.073 91.8602 80.7202 88.5981 80.718 85.3041V76.9451H75.699Z" fill="#D3B1A9"/>
<path d="M80.8601 70.422V74.869C77.05 72.93 69.4601 70.422 55.7821 70.422C42.1041 70.422 34.517 72.93 30.701 74.87V70.422C30.701 63.7708 33.3432 57.392 38.0464 52.6888C42.7495 47.9857 49.1283 45.3435 55.7795 45.3435C62.4308 45.3435 68.8096 47.9857 73.5127 52.6888C78.2159 57.392 80.8581 63.7708 80.8581 70.422H80.8601ZM60.801 58.719C60.801 57.7269 60.5069 56.7571 59.9557 55.9323C59.4045 55.1074 58.6211 54.4645 57.7046 54.0848C56.788 53.7052 55.7795 53.6058 54.8065 53.7994C53.8335 53.9929 52.9397 54.4707 52.2382 55.1722C51.5367 55.8737 51.059 56.7674 50.8654 57.7404C50.6719 58.7134 50.7712 59.722 51.1509 60.6385C51.5305 61.5551 52.1734 62.3385 52.9983 62.8897C53.8232 63.4408 54.793 63.735 55.785 63.735C57.1151 63.7339 58.3903 63.2051 59.3307 62.2647C60.2712 61.3242 60.8 60.049 60.801 58.719Z" fill="#ED5565"/>
<path d="M55.6391 45.344C54.7931 45.344 53.9541 45.389 53.1281 45.471C59.3138 46.0921 65.0483 48.9889 69.2188 53.5993C73.3893 58.2098 75.6984 64.2051 75.6981 70.422V72.9C77.4251 73.4093 79.1044 74.0682 80.7171 74.869V70.422C80.7172 67.1287 80.0686 63.8676 78.8084 60.8249C77.5481 57.7822 75.7009 55.0176 73.3722 52.6889C71.0434 50.3601 68.2788 48.5129 65.2361 47.2527C62.1935 45.9924 58.9324 45.3439 55.6391 45.344Z" fill="#DA4453"/>
<path d="M67.386 107.426V115.332L60.698 118.676L55.682 117.004L50.668 118.676L43.978 115.332V107.426C47.5868 109.325 51.6033 110.317 55.681 110.317C59.7587 110.317 63.7752 109.325 67.384 107.426H67.386Z" fill="#FFCE54"/>
<path d="M55.674 53.7029C56.666 53.7033 57.6356 53.9978 58.4602 54.5492C59.2848 55.1006 59.9274 55.8841 60.3068 56.8007C60.6861 57.7173 60.7852 58.7258 60.5914 59.6987C60.3976 60.6716 59.9197 61.5651 59.2181 62.2664C58.5166 62.9677 57.6228 63.4453 56.6498 63.6386C55.6769 63.832 54.6684 63.7326 53.752 63.3529C52.8356 62.9732 52.0523 62.3302 51.5012 61.5054C50.9501 60.6806 50.656 59.7109 50.656 58.7189C50.6571 57.3885 51.1861 56.113 52.127 55.1725C53.0679 54.232 54.3437 53.7034 55.674 53.7029Z" fill="#FFCE54"/>
<path d="M55.7221 126.952C55.2856 126.944 54.8694 126.766 54.5625 126.455C54.2556 126.145 54.0824 125.727 54.0797 125.29C54.0771 124.854 54.2454 124.433 54.5485 124.119C54.8517 123.805 55.2657 123.622 55.7021 123.609H55.7221C55.9416 123.609 56.1591 123.652 56.3619 123.736C56.5648 123.82 56.7491 123.943 56.9043 124.099C57.0596 124.254 57.1828 124.438 57.2668 124.641C57.3508 124.844 57.3941 125.061 57.3941 125.281C57.3941 125.5 57.3508 125.718 57.2668 125.921C57.1828 126.124 57.0596 126.308 56.9043 126.463C56.7491 126.618 56.5648 126.742 56.3619 126.826C56.1591 126.91 55.9416 126.953 55.7221 126.953V126.952Z" fill="#DA4453"/>
<path d="M115.644 101.874H77.191C76.9715 101.874 76.754 101.917 76.5511 102.001C76.3482 102.085 76.1638 102.208 76.0085 102.363C75.8532 102.518 75.7301 102.702 75.6461 102.905C75.5621 103.108 75.5189 103.325 75.519 103.545V140.326C75.5188 140.546 75.5618 140.763 75.6458 140.966C75.7297 141.169 75.8529 141.354 76.0082 141.509C76.1635 141.664 76.3479 141.787 76.5509 141.871C76.7539 141.955 76.9714 141.998 77.191 141.998H115.644C115.864 141.999 116.082 141.956 116.285 141.872C116.488 141.788 116.673 141.665 116.829 141.51C116.984 141.355 117.108 141.17 117.192 140.967C117.276 140.764 117.319 140.546 117.319 140.326V103.545C117.319 103.325 117.276 103.108 117.192 102.904C117.108 102.701 116.984 102.517 116.828 102.362C116.673 102.206 116.488 102.084 116.285 102C116.082 101.916 115.864 101.873 115.644 101.874Z" fill="#FFD2A6"/>
<path d="M91.4811 135.319C91.2614 135.319 91.0439 135.276 90.8409 135.192C90.6379 135.108 90.4535 134.985 90.2982 134.83C90.1429 134.674 90.0198 134.49 89.9358 134.287C89.8519 134.084 89.8088 133.866 89.8091 133.647V120.272C89.8091 119.828 89.9852 119.403 90.2988 119.09C90.6124 118.776 91.0376 118.6 91.4811 118.6C91.9245 118.6 92.3498 118.776 92.6634 119.09C92.9769 119.403 93.1531 119.828 93.1531 120.272V133.647C93.1533 133.866 93.1103 134.084 93.0263 134.287C92.9424 134.49 92.8193 134.674 92.664 134.83C92.5086 134.985 92.3242 135.108 92.1212 135.192C91.9183 135.276 91.7007 135.319 91.4811 135.319Z" fill="#545C66"/>
<path d="M87.301 120.271C87.0814 120.271 86.8638 120.228 86.6609 120.144C86.4579 120.06 86.2735 119.937 86.1182 119.782C85.9628 119.626 85.8397 119.442 85.7558 119.239C85.6718 119.036 85.6288 118.818 85.629 118.599V111.908C85.629 111.464 85.8052 111.039 86.1187 110.726C86.4323 110.412 86.8576 110.236 87.301 110.236C87.7445 110.236 88.1698 110.412 88.4833 110.726C88.7969 111.039 88.973 111.464 88.973 111.908V118.599C88.9733 118.818 88.9302 119.036 88.8463 119.239C88.7624 119.442 88.6392 119.626 88.4839 119.782C88.3286 119.937 88.1442 120.06 87.9412 120.144C87.7382 120.228 87.5207 120.271 87.301 120.271Z" fill="#545C66"/>
<path d="M95.664 120.271C95.4442 120.271 95.2264 120.228 95.0232 120.145C94.82 120.061 94.6354 119.938 94.4798 119.782C94.3243 119.627 94.201 119.443 94.1169 119.239C94.0329 119.036 93.9897 118.819 93.99 118.599V111.908C93.99 111.464 94.1661 111.039 94.4797 110.726C94.7933 110.412 95.2186 110.236 95.662 110.236C96.1054 110.236 96.5307 110.412 96.8443 110.726C97.1578 111.039 97.334 111.464 97.334 111.908V118.599C97.3343 118.818 97.2913 119.036 97.2074 119.239C97.1236 119.441 97.0007 119.626 96.8456 119.781C96.6905 119.936 96.5063 120.059 96.3035 120.144C96.1008 120.228 95.8835 120.271 95.664 120.271Z" fill="#545C66"/>
<path d="M100.676 135.319C100.456 135.319 100.239 135.276 100.036 135.192C99.8329 135.108 99.6485 134.985 99.4932 134.83C99.3378 134.675 99.2147 134.49 99.1308 134.287C99.0468 134.084 99.0038 133.867 99.004 133.647V111.903C99.004 111.46 99.1802 111.034 99.4937 110.721C99.8073 110.407 100.233 110.231 100.676 110.231C101.119 110.231 101.545 110.407 101.858 110.721C102.172 111.034 102.348 111.46 102.348 111.903V133.647C102.348 133.867 102.305 134.084 102.221 134.287C102.137 134.49 102.014 134.675 101.859 134.83C101.704 134.985 101.519 135.108 101.316 135.192C101.113 135.276 100.896 135.319 100.676 135.319Z" fill="#545C66"/>
<path d="M100.643 110.294C100.423 110.294 100.206 110.337 100.003 110.421C99.7999 110.505 99.6155 110.628 99.4602 110.783C99.3049 110.938 99.1817 111.123 99.0978 111.326C99.0139 111.529 98.9708 111.746 98.9711 111.966V123.666H98.9811C98.9816 124.109 99.158 124.534 99.4715 124.847C99.785 125.16 100.21 125.336 100.653 125.336H105.669C105.889 125.336 106.106 125.293 106.309 125.209C106.512 125.125 106.697 125.002 106.852 124.847C107.007 124.692 107.13 124.507 107.214 124.304C107.298 124.101 107.341 123.884 107.341 123.664V116.994C107.341 115.217 106.635 113.513 105.379 112.257C104.123 111.001 102.42 110.294 100.643 110.294Z" fill="#656D78"/>
<path d="M91.499 117.004C91.2794 117.004 91.0618 116.961 90.8589 116.877C90.6559 116.793 90.4715 116.67 90.3162 116.515C90.1608 116.36 90.0377 116.175 89.9538 115.972C89.8698 115.769 89.8268 115.552 89.827 115.332V111.992C89.827 111.549 90.0032 111.123 90.3167 110.81C90.6303 110.496 91.0556 110.32 91.499 110.32C91.9425 110.32 92.3677 110.496 92.6813 110.81C92.9949 111.123 93.171 111.549 93.171 111.992V115.332C93.1713 115.552 93.1282 115.769 93.0443 115.972C92.9604 116.175 92.8372 116.36 92.6819 116.515C92.5266 116.67 92.3422 116.793 92.1392 116.877C91.9362 116.961 91.7187 117.004 91.499 117.004Z" fill="#545C66"/>
<path d="M95.6771 115.318H87.3141C87.0944 115.318 86.8767 115.361 86.6737 115.445C86.4707 115.529 86.2862 115.652 86.1309 115.808C85.9755 115.963 85.8524 116.148 85.7685 116.351C85.6847 116.554 85.6417 116.771 85.6421 116.991V118.67C85.6424 119.555 85.994 120.404 86.6196 121.03C87.2453 121.656 88.094 122.008 88.9791 122.009H93.9851C93.9921 122.009 93.9951 122.009 94.0021 122.009C94.8894 122.008 95.7402 121.655 96.3676 121.028C96.9951 120.4 97.348 119.549 97.3491 118.662V116.991C97.3495 116.771 97.3065 116.554 97.2226 116.351C97.1388 116.148 97.0156 115.963 96.8603 115.808C96.705 115.652 96.5205 115.529 96.3175 115.445C96.1144 115.361 95.8968 115.318 95.6771 115.318Z" fill="#656D78"/>
<path d="M93.5 42C95.9853 42 98 39.9853 98 37.5C98 35.0147 95.9853 33 93.5 33C91.0147 33 89 35.0147 89 37.5C89 39.9853 91.0147 42 93.5 42Z" stroke="#ED5565" stroke-width="2"/>
<path d="M82.5 14C84.9853 14 87 11.9853 87 9.5C87 7.01472 84.9853 5 82.5 5C80.0147 5 78 7.01472 78 9.5C78 11.9853 80.0147 14 82.5 14Z" stroke="#A0D468" stroke-width="2"/>
<path d="M9.5 58C10.8807 58 12 56.8807 12 55.5C12 54.1193 10.8807 53 9.5 53C8.11929 53 7 54.1193 7 55.5C7 56.8807 8.11929 58 9.5 58Z" stroke="#A0D468" stroke-width="2"/>
<path d="M123.5 40C125.433 40 127 38.433 127 36.5C127 34.567 125.433 33 123.5 33C121.567 33 120 34.567 120 36.5C120 38.433 121.567 40 123.5 40Z" stroke="#FFCE54" stroke-width="2"/>
<path d="M17.5 93C19.433 93 21 91.433 21 89.5C21 87.567 19.433 86 17.5 86C15.567 86 14 87.567 14 89.5C14 91.433 15.567 93 17.5 93Z" stroke="#FFCE54" stroke-width="2"/>
<path d="M32.9998 24.0021L37.9998 28.9978" stroke="#FC6930" stroke-width="2" stroke-linecap="round"/>
<path d="M33 28.998L38 24.0023" stroke="#FC6930" stroke-width="2" stroke-linecap="round"/>
<path d="M7.99983 124.002L12.9998 128.998" stroke="#ED5565" stroke-width="2" stroke-linecap="round"/>
<path d="M8 128.998L13 124.002" stroke="#ED5565" stroke-width="2" stroke-linecap="round"/>
<path d="M119 69.0021L124 73.9978" stroke="#FF6801" stroke-width="2" stroke-linecap="round"/>
<path d="M119 73.998L124 69.0023" stroke="#FF6801" stroke-width="2" stroke-linecap="round"/>
</svg>
