<svg width="142" height="143" viewBox="0 0 142 143" fill="none" xmlns="http://www.w3.org/2000/svg">
<path d="M71 142C110.212 142 142 110.212 142 71C142 31.7878 110.212 0 71 0C31.7878 0 0 31.7878 0 71C0 110.212 31.7878 142 71 142Z" fill="#F3F7F9"/>
<path d="M71 128C102.48 128 128 102.48 128 71C128 39.5198 102.48 14 71 14C39.5198 14 14 39.5198 14 71C14 102.48 39.5198 128 71 128Z" fill="#DDE8EC"/>
<path d="M71 114C94.7482 114 114 94.7482 114 71C114 47.2518 94.7482 28 71 28C47.2518 28 28 47.2518 28 71C28 94.7482 47.2518 114 71 114Z" fill="#CEDEE1"/>
<path d="M26.761 105.493V111.842H25.174C24.3321 111.842 23.5246 111.507 22.9293 110.912C22.334 110.317 21.9995 109.509 21.9995 108.667C21.9995 107.825 22.334 107.018 22.9293 106.423C23.5246 105.827 24.3321 105.493 25.174 105.493H26.761Z" fill="#ED5565"/>
<path d="M36.284 129.3H48.978C48.978 130.984 48.309 132.599 47.1181 133.79C45.9273 134.981 44.3121 135.65 42.628 135.65C40.9439 135.65 39.3287 134.981 38.1379 133.79C36.947 132.599 36.278 130.984 36.278 129.3H36.284Z" fill="#E6E9ED"/>
<path d="M48.982 129.3H55.33C55.2579 132.62 53.8885 135.779 51.5152 138.101C49.1419 140.424 45.9535 141.724 42.633 141.724C39.3126 141.724 36.1242 140.424 33.7509 138.101C31.3776 135.779 30.0082 132.62 29.936 129.3H36.285C36.285 130.984 36.9541 132.599 38.1449 133.79C39.3358 134.981 40.9509 135.65 42.635 135.65C44.3192 135.65 45.9343 134.981 47.1252 133.79C48.316 132.599 48.985 130.984 48.985 129.3H48.982Z" fill="#545C66"/>
<path d="M99.385 129.303C99.385 130.987 100.054 132.602 101.245 133.793C102.436 134.984 104.051 135.653 105.735 135.653C107.419 135.653 109.034 134.984 110.225 133.793C111.416 132.602 112.085 130.987 112.085 129.303V129.287H118.43V129.303C118.467 130.994 118.166 132.675 117.544 134.247C116.922 135.82 115.993 137.253 114.81 138.461C113.628 139.67 112.216 140.63 110.657 141.286C109.098 141.941 107.424 142.279 105.733 142.279C104.042 142.279 102.368 141.941 100.809 141.286C99.2505 140.63 97.8384 139.67 96.6557 138.461C95.473 137.253 94.5437 135.82 93.9221 134.247C93.3005 132.675 92.9993 130.994 93.036 129.303V129.287H99.385V129.303Z" fill="#545C66"/>
<path d="M105.731 64.2141C106.151 64.2154 106.554 64.3831 106.852 64.6804C107.149 64.9777 107.317 65.3806 107.318 65.8011V75.3401C107.317 75.7606 107.149 76.1635 106.852 76.4608C106.554 76.7582 106.151 76.9258 105.731 76.9271H104.144C103.724 76.9258 103.321 76.7582 103.023 76.4608C102.726 76.1635 102.558 75.7606 102.557 75.3401V65.8011C102.558 65.3806 102.726 64.9777 103.023 64.6804C103.321 64.3831 103.724 64.2154 104.144 64.2141H105.731Z" fill="#E6E9ED"/>
<path d="M71.204 91.208C71.6245 91.2093 72.0274 91.377 72.3247 91.6743C72.622 91.9716 72.7897 92.3745 72.791 92.795V95.953C72.7907 96.3742 72.6236 96.7781 72.3261 97.0763C72.0287 97.3745 71.6252 97.5427 71.204 97.544H34.697C34.2765 97.5427 33.8736 97.3751 33.5763 97.0777C33.2789 96.7804 33.1113 96.3775 33.11 95.957V92.798C33.1105 92.377 33.2778 91.9733 33.5752 91.6754C33.8726 91.3774 34.276 91.2093 34.697 91.208H71.204Z" fill="#656D78"/>
<path d="M29.936 129.303C29.5155 129.302 29.1126 129.134 28.8153 128.837C28.5179 128.539 28.3503 128.136 28.349 127.716V119.777C28.349 118.904 28.706 118.19 29.143 118.19H56.124C56.5749 118.603 56.8576 119.168 56.918 119.777V127.716C56.9167 128.136 56.7491 128.539 56.4517 128.837C56.1544 129.134 55.7515 129.302 55.331 129.303H29.936Z" fill="#656D78"/>
<path d="M78.911 67.4009C79.5388 67.4009 80.1524 67.587 80.6744 67.9358C81.1963 68.2846 81.6032 68.7803 81.8434 69.3602C82.0836 69.9402 82.1465 70.5784 82.024 71.1941C81.9015 71.8098 81.5992 72.3753 81.1554 72.8192C80.7115 73.2631 80.1459 73.5654 79.5302 73.6879C78.9145 73.8104 78.2763 73.7475 77.6964 73.5073C77.1164 73.267 76.6207 72.8602 76.2719 72.3383C75.9232 71.8163 75.737 71.2026 75.737 70.5749C75.737 69.7331 76.0714 68.9258 76.6666 68.3305C77.2619 67.7353 78.0692 67.4009 78.911 67.4009Z" fill="#656D78"/>
<path d="M99.384 129.287H93.036L88.671 129.303C92.8179 129.209 96.7631 127.495 99.6614 124.528C102.56 121.56 104.181 117.576 104.177 113.428C108.378 113.433 112.405 115.107 115.372 118.081C118.34 121.055 120.004 125.086 120 129.287H99.384Z" fill="#7BB542"/>
<path d="M93.114 73.753C93.9559 73.753 94.7634 73.4185 95.3587 72.8232C95.954 72.2278 96.2885 71.4204 96.2885 70.5785C96.2885 69.7365 95.954 68.9291 95.3587 68.3337C94.7634 67.7384 93.9559 67.404 93.114 67.404H84.258C84.8782 65.9882 85.8976 64.784 87.1914 63.9384C88.4852 63.0929 89.9974 62.6427 91.543 62.643V62.627H102.632L104.221 64.214V76.927L102.632 78.514H91.543C89.9969 78.5164 88.4838 78.0671 87.1896 77.2213C85.8954 76.3754 84.8764 75.17 84.258 73.753H93.114Z" fill="#A0D468"/>
<path d="M84.293 67.4009H93.149C93.9909 67.4009 94.7984 67.7353 95.3937 68.3307C95.989 68.926 96.3235 69.7334 96.3235 70.5754C96.3235 71.4173 95.989 72.2248 95.3937 72.8201C94.7984 73.4154 93.9909 73.7499 93.149 73.7499H78.865C79.7069 73.7499 80.5144 73.4154 81.1097 72.8201C81.705 72.2248 82.0395 71.4173 82.0395 70.5754C82.0395 69.7334 81.705 68.926 81.1097 68.3307C80.5144 67.7353 79.7069 67.4009 78.865 67.4009H84.293Z" fill="#545C66"/>
<path d="M104.296 113.431C104.299 117.578 102.678 121.562 99.7793 124.529C96.8811 127.495 92.9363 129.209 88.79 129.303H64.59C62.4853 129.303 60.4669 128.467 58.9787 126.978C57.4905 125.49 56.6543 123.472 56.654 121.367H88.425C90.5295 121.366 92.5476 120.53 94.0357 119.042C95.5238 117.554 96.3602 115.535 96.361 113.431H96.329L91.583 78.511H99.535L104.296 113.431Z" fill="#8CC152"/>
<path d="M105.733 135.651C104.899 135.651 104.073 135.487 103.303 135.168C102.532 134.849 101.832 134.382 101.243 133.792C100.653 133.203 100.185 132.502 99.8665 131.732C99.5476 130.962 99.3836 130.136 99.384 129.302V129.286H112.078V129.302C112.078 130.985 111.41 132.6 110.22 133.79C109.03 134.981 107.416 135.65 105.733 135.651Z" fill="#E6E9ED"/>
<path d="M72.79 99.131V121.367H28.348L26.761 119.777V103.908C26.7606 103.074 26.9245 102.248 27.2435 101.478C27.5624 100.707 28.03 100.007 28.6197 99.4177C29.2093 98.828 29.9094 98.3604 30.6799 98.0415C31.4503 97.7225 32.2761 97.5586 33.11 97.559V97.543H71.201L72.79 99.131Z" fill="#A0D468"/>
<path d="M28.348 121.364C29.2245 121.364 29.935 120.653 29.935 119.777C29.935 118.9 29.2245 118.19 28.348 118.19C27.4715 118.19 26.761 118.9 26.761 119.777C26.761 120.653 27.4715 121.364 28.348 121.364Z" fill="#A0D468"/>
<path d="M71.01 100.718C71.8865 100.718 72.597 100.007 72.597 99.1309C72.597 98.2545 71.8865 97.5439 71.01 97.5439C70.1336 97.5439 69.423 98.2545 69.423 99.1309C69.423 100.007 70.1336 100.718 71.01 100.718Z" fill="#A0D468"/>
<path d="M102.557 78.5119C102.349 78.5121 102.142 78.4711 101.95 78.3914C101.757 78.3117 101.582 78.1948 101.435 78.0474C101.287 77.9 101.17 77.725 101.091 77.5324C101.011 77.3398 100.97 77.1334 100.97 76.9249V64.2149C100.97 63.794 101.137 63.3904 101.435 63.0928C101.732 62.7951 102.136 62.6279 102.557 62.6279C102.978 62.6279 103.382 62.7951 103.679 63.0928C103.977 63.3904 104.144 63.794 104.144 64.2149V76.9249C104.144 77.1334 104.103 77.3398 104.023 77.5324C103.944 77.725 103.827 77.9 103.68 78.0474C103.532 78.1948 103.357 78.3117 103.165 78.3914C102.972 78.4711 102.765 78.5121 102.557 78.5119Z" fill="#A0D468"/>
<path d="M63.13 51.523C62.7095 51.5225 62.3065 51.355 62.0095 51.0574C61.7124 50.7598 61.5457 50.3565 61.546 49.936C61.546 48.6732 61.0443 47.4621 60.1514 46.5691C59.2584 45.6762 58.0473 45.1745 56.7845 45.1745C55.5217 45.1745 54.3106 45.6762 53.4176 46.5691C52.5247 47.4621 52.023 48.6732 52.023 49.936C52.023 50.3569 51.8558 50.7606 51.5582 51.0582C51.2606 51.3558 50.8569 51.523 50.436 51.523C50.0151 51.523 49.6114 51.3558 49.3138 51.0582C49.0162 50.7606 48.849 50.3569 48.849 49.936C48.849 47.8312 49.6851 45.8127 51.1734 44.3244C52.6617 42.8361 54.6802 42 56.785 42C58.8898 42 60.9083 42.8361 62.3966 44.3244C63.8849 45.8127 64.721 47.8312 64.721 49.936C64.7211 50.1448 64.68 50.3515 64.6001 50.5444C64.5201 50.7373 64.4029 50.9124 64.2551 51.0599C64.1072 51.2073 63.9318 51.3241 63.7387 51.4036C63.5456 51.4831 63.3388 51.5237 63.13 51.523Z" fill="#CCD1D9"/>
<path d="M50.45 57.8721C50.0291 57.8721 49.6255 57.7049 49.3279 57.4073C49.0302 57.1097 48.863 56.706 48.863 56.2851V49.9361C48.863 49.5152 49.0302 49.1116 49.3279 48.8139C49.6255 48.5163 50.0291 48.3491 50.45 48.3491C50.8709 48.3491 51.2746 48.5163 51.5722 48.8139C51.8698 49.1116 52.037 49.5152 52.037 49.9361V56.2851C52.037 56.706 51.8698 57.1097 51.5722 57.4073C51.2746 57.7049 50.8709 57.8721 50.45 57.8721Z" fill="#CCD1D9"/>
<path d="M63.095 57.8721C62.6741 57.8721 62.2704 57.7049 61.9728 57.4073C61.6752 57.1097 61.508 56.706 61.508 56.2851V49.9361C61.508 49.5152 61.6752 49.1116 61.9728 48.8139C62.2704 48.5163 62.6741 48.3491 63.095 48.3491C63.5159 48.3491 63.9196 48.5163 64.2172 48.8139C64.5148 49.1116 64.682 49.5152 64.682 49.9361V56.2851C64.682 56.706 64.5148 57.1097 64.2172 57.4073C63.9196 57.7049 63.5159 57.8721 63.095 57.8721Z" fill="#CCD1D9"/>
<path d="M56.811 51.523C56.3906 51.5225 55.9875 51.355 55.6905 51.0574C55.3935 50.7598 55.2268 50.3565 55.227 49.936C55.227 48.6732 54.7254 47.4621 53.8324 46.5691C52.9395 45.6762 51.7284 45.1745 50.4655 45.1745C49.2027 45.1745 47.9916 45.6762 47.0986 46.5691C46.2057 47.4621 45.704 48.6732 45.704 49.936C45.704 50.3569 45.5368 50.7606 45.2392 51.0582C44.9416 51.3558 44.5379 51.523 44.117 51.523C43.6961 51.523 43.2925 51.3558 42.9949 51.0582C42.6972 50.7606 42.53 50.3569 42.53 49.936C42.53 47.8312 43.3661 45.8127 44.8544 44.3244C46.3427 42.8361 48.3613 42 50.466 42C52.5708 42 54.5893 42.8361 56.0776 44.3244C57.5659 45.8127 58.402 47.8312 58.402 49.936C58.4022 50.1448 58.3611 50.3515 58.2811 50.5444C58.2012 50.7373 58.0839 50.9124 57.9361 51.0599C57.7883 51.2073 57.6128 51.3241 57.4197 51.4036C57.2267 51.4831 57.0198 51.5237 56.811 51.523Z" fill="#E6E9ED"/>
<path d="M44.127 57.8721C43.7061 57.8721 43.3025 57.7049 43.0049 57.4073C42.7072 57.1097 42.54 56.706 42.54 56.2851V49.9361C42.54 49.5152 42.7072 49.1116 43.0049 48.8139C43.3025 48.5163 43.7061 48.3491 44.127 48.3491C44.5479 48.3491 44.9516 48.5163 45.2492 48.8139C45.5468 49.1116 45.714 49.5152 45.714 49.9361V56.2851C45.714 56.706 45.5468 57.1097 45.2492 57.4073C44.9516 57.7049 44.5479 57.8721 44.127 57.8721Z" fill="#E6E9ED"/>
<path d="M56.773 57.8721C56.3521 57.8721 55.9485 57.7049 55.6509 57.4073C55.3532 57.1097 55.186 56.706 55.186 56.2851V49.9361C55.186 49.5152 55.3532 49.1116 55.6509 48.8139C55.9485 48.5163 56.3521 48.3491 56.773 48.3491C57.1939 48.3491 57.5976 48.5163 57.8952 48.8139C58.1928 49.1116 58.36 49.5152 58.36 49.9361V56.2851C58.36 56.706 58.1928 57.1097 57.8952 57.4073C57.5976 57.7049 57.1939 57.8721 56.773 57.8721Z" fill="#E6E9ED"/>
<path d="M71.098 54.7009H40.942C40.5214 54.702 40.1184 54.8695 39.821 55.1669C39.5236 55.4643 39.356 55.8674 39.355 56.2879V89.6009C39.3566 90.0213 39.5243 90.4241 39.8215 90.7214C40.1188 91.0186 40.5216 91.1863 40.942 91.1879H71.098C71.5184 91.1863 71.9211 91.0186 72.2184 90.7214C72.5157 90.4241 72.6834 90.0213 72.685 89.6009V56.2869C72.6837 55.8665 72.516 55.4637 72.2186 55.1666C71.9213 54.8694 71.5184 54.702 71.098 54.7009Z" fill="#F7C292"/>
<path d="M64.853 54.7009H34.697C34.2764 54.702 33.8734 54.8695 33.576 55.1669C33.2786 55.4643 33.111 55.8674 33.11 56.2879V89.6009C33.1116 90.0213 33.2793 90.4241 33.5766 90.7214C33.8738 91.0186 34.2766 91.1863 34.697 91.1879H64.853C65.2734 91.1863 65.6761 91.0186 65.9734 90.7214C66.2707 90.4241 66.4384 90.0213 66.44 89.6009V56.2869C66.4387 55.8665 66.271 55.4637 65.9736 55.1666C65.6763 54.8694 65.2734 54.702 64.853 54.7009Z" fill="#FFD2A6"/>
<path d="M44.934 86.447C44.7256 86.4471 44.5192 86.4062 44.3266 86.3265C44.134 86.2468 43.959 86.1299 43.8116 85.9825C43.6642 85.8351 43.5473 85.6601 43.4676 85.4675C43.3879 85.2749 43.3469 85.0684 43.347 84.86V72.16C43.347 71.7391 43.5142 71.3354 43.8119 71.0378C44.1095 70.7402 44.5131 70.573 44.934 70.573C45.3549 70.573 45.7586 70.7402 46.0562 71.0378C46.3538 71.3354 46.521 71.7391 46.521 72.16V84.86C46.5212 85.0684 46.4802 85.2749 46.4005 85.4675C46.3208 85.6601 46.2039 85.8351 46.0565 85.9825C45.9091 86.1299 45.7341 86.2468 45.5415 86.3265C45.3489 86.4062 45.1425 86.4471 44.934 86.447Z" fill="#545C66"/>
<path d="M40.966 72.1588C40.7576 72.1589 40.5512 72.118 40.3586 72.0383C40.166 71.9586 39.9909 71.8417 39.8436 71.6943C39.6962 71.5469 39.5793 71.3719 39.4996 71.1793C39.4199 70.9867 39.3789 70.7803 39.379 70.5718V64.2198C39.379 63.7989 39.5462 63.3953 39.8439 63.0976C40.1415 62.8 40.5451 62.6328 40.966 62.6328C41.3869 62.6328 41.7906 62.8 42.0882 63.0976C42.3858 63.3953 42.553 63.7989 42.553 64.2198V70.5718C42.5532 70.7803 42.5122 70.9867 42.4325 71.1793C42.3528 71.3719 42.2359 71.5469 42.0885 71.6943C41.9411 71.8417 41.7661 71.9586 41.5735 72.0383C41.3809 72.118 41.1745 72.1589 40.966 72.1588Z" fill="#545C66"/>
<path d="M48.908 72.1588C48.6996 72.1589 48.4932 72.118 48.3006 72.0383C48.108 71.9586 47.933 71.8417 47.7856 71.6943C47.6382 71.5469 47.5213 71.3719 47.4416 71.1793C47.3619 70.9867 47.3209 70.7803 47.321 70.5718V64.2198C47.321 63.7989 47.4882 63.3953 47.7859 63.0976C48.0835 62.8 48.4871 62.6328 48.908 62.6328C49.3289 62.6328 49.7326 62.8 50.0302 63.0976C50.3278 63.3953 50.495 63.7989 50.495 64.2198V70.5718C50.4952 70.7803 50.4542 70.9867 50.3745 71.1793C50.2948 71.3719 50.1779 71.5469 50.0305 71.6943C49.8831 71.8417 49.7081 71.9586 49.5155 72.0383C49.3229 72.118 49.1165 72.1589 48.908 72.1588Z" fill="#545C66"/>
<path d="M53.6631 86.4469C53.4546 86.447 53.2482 86.4061 53.0556 86.3263C52.863 86.2466 52.688 86.1297 52.5406 85.9824C52.3932 85.835 52.2763 85.66 52.1966 85.4674C52.1169 85.2748 52.0759 85.0683 52.0761 84.8599V64.2169C52.0761 63.796 52.2433 63.3923 52.5409 63.0947C52.8385 62.7971 53.2422 62.6299 53.6631 62.6299C54.0839 62.6299 54.4876 62.7971 54.7852 63.0947C55.0828 63.3923 55.25 63.796 55.25 64.2169V84.8599C55.2502 85.0683 55.2092 85.2748 55.1295 85.4674C55.0498 85.66 54.9329 85.835 54.7855 85.9824C54.6381 86.1297 54.4631 86.2466 54.2705 86.3263C54.0779 86.4061 53.8715 86.447 53.6631 86.4469Z" fill="#545C66"/>
<path d="M53.606 62.6349C53.1857 62.6344 52.7824 62.8007 52.4847 63.0973C52.1869 63.3939 52.0191 63.7966 52.018 64.2169V75.3269H52.028C52.028 75.5355 52.0692 75.7422 52.1491 75.9349C52.229 76.1276 52.3462 76.3027 52.4939 76.4501C52.6416 76.5975 52.8169 76.7144 53.0098 76.7939C53.2027 76.8735 53.4093 76.9143 53.618 76.9139H58.379C58.5875 76.914 58.7939 76.8731 58.9865 76.7933C59.1791 76.7136 59.3541 76.5967 59.5015 76.4494C59.6489 76.302 59.7658 76.127 59.8455 75.9344C59.9252 75.7418 59.9661 75.5353 59.966 75.3269V68.9879C59.9642 67.3022 59.2937 65.6861 58.1017 64.4941C56.9098 63.3022 55.2937 62.6317 53.608 62.6299L53.606 62.6349Z" fill="#656D78"/>
<path d="M44.927 68.9781C44.7186 68.9782 44.5122 68.9372 44.3196 68.8575C44.127 68.7778 43.9519 68.6609 43.8046 68.5135C43.6572 68.3661 43.5403 68.1911 43.4606 67.9985C43.3809 67.8059 43.3399 67.5995 43.34 67.3911V64.2201C43.34 63.7992 43.5072 63.3955 43.8048 63.0979C44.1025 62.8003 44.5061 62.6331 44.927 62.6331C45.3479 62.6331 45.7516 62.8003 46.0492 63.0979C46.3468 63.3955 46.514 63.7992 46.514 64.2201V67.3911C46.5142 67.5995 46.4732 67.8059 46.3935 67.9985C46.3138 68.1911 46.1969 68.3661 46.0495 68.5135C45.9021 68.6609 45.7271 68.7778 45.5345 68.8575C45.3419 68.9372 45.1355 68.9782 44.927 68.9781Z" fill="#545C66"/>
<path d="M48.907 67.397H40.97C40.7616 67.3968 40.5551 67.4378 40.3625 67.5175C40.1699 67.5972 39.9949 67.7141 39.8475 67.8615C39.7001 68.0089 39.5832 68.1839 39.5035 68.3765C39.4238 68.5691 39.3829 68.7755 39.383 68.984V70.571C39.383 70.571 39.383 70.571 39.383 70.577C39.3838 71.4176 39.718 72.2235 40.3123 72.818C40.9066 73.4125 41.7124 73.7469 42.553 73.748H47.303C47.309 73.748 47.314 73.748 47.319 73.748C48.1613 73.7469 48.9687 73.4119 49.5643 72.8163C50.1599 72.2207 50.4949 71.4132 50.496 70.571V68.981C50.4957 68.7726 50.4544 68.5663 50.3744 68.374C50.2944 68.1816 50.1773 68.0068 50.0297 67.8597C49.8821 67.7126 49.707 67.5961 49.5144 67.5167C49.3218 67.4372 49.1154 67.3966 48.907 67.397Z" fill="#656D78"/>
<path d="M36.5 31C38.9853 31 41 28.9853 41 26.5C41 24.0147 38.9853 22 36.5 22C34.0147 22 32 24.0147 32 26.5C32 28.9853 34.0147 31 36.5 31Z" stroke="#ED5565" stroke-width="2"/>
<path d="M11.5 120C13.9853 120 16 117.985 16 115.5C16 113.015 13.9853 111 11.5 111C9.01472 111 7 113.015 7 115.5C7 117.985 9.01472 120 11.5 120Z" stroke="#A0D468" stroke-width="2"/>
<path d="M91.5 19C92.8807 19 94 17.8807 94 16.5C94 15.1193 92.8807 14 91.5 14C90.1193 14 89 15.1193 89 16.5C89 17.8807 90.1193 19 91.5 19Z" stroke="#A0D468" stroke-width="2"/>
<path d="M120.5 54C122.433 54 124 52.433 124 50.5C124 48.567 122.433 47 120.5 47C118.567 47 117 48.567 117 50.5C117 52.433 118.567 54 120.5 54Z" stroke="#FFCE54" stroke-width="2"/>
<path d="M78.9999 37.0021L83.9998 41.9978" stroke="#ED5565" stroke-width="2" stroke-linecap="round"/>
<path d="M79 41.998L84 37.0023" stroke="#ED5565" stroke-width="2" stroke-linecap="round"/>
<path d="M131 87.0021L136 91.9978" stroke="#FC6930" stroke-width="2" stroke-linecap="round"/>
<path d="M131 91.998L136 87.0023" stroke="#FC6930" stroke-width="2" stroke-linecap="round"/>
<path d="M8.99989 60.0021L13.9998 64.9978" stroke="#FFCE54" stroke-width="2" stroke-linecap="round"/>
<path d="M9 64.998L14 60.0023" stroke="#FFCE54" stroke-width="2" stroke-linecap="round"/>
</svg>
