<svg width="102" height="32" viewBox="0 0 102 32" fill="none" xmlns="http://www.w3.org/2000/svg">
<g clip-path="url(#clip0)">
<path d="M0 0H120V32H0V0Z" fill="#00AAFF"/>
<path fill-rule="evenodd" clip-rule="evenodd" d="M18.867 13.414L18.184 13.582L18.108 14.206L17.328 14.157L17.012 14.675L16.212 14.418L15.688 14.771L14.948 14.331L14.265 14.491L13.662 13.916L12.874 13.856L12.468 13.197L11.668 12.93L11.493 12.255L10.755 11.808L10.823 11.183L10.223 10.591L10.535 10.073L10.135 9.41L10.657 9.051L10.482 8.371L11.165 8.204L11.241 7.579L12.021 7.623L12.339 7.109L13.132 7.368L13.661 7.015L14.396 7.451L15.084 7.294L15.688 7.868L16.468 7.931L16.88 8.583L17.68 8.856L17.857 9.531L18.591 9.971L18.521 10.609L19.118 11.189L18.812 11.707L19.215 12.377L18.696 12.733L18.867 13.414ZM21.524 10.292C21.357 10.24 23.188 9.26 23.184 8.856C23.198 7.914 21.357 7.144 19.429 7.183C19.261 7.188 19.391 6.152 18.968 5.18C18.645 4.59 18.575 4.467 16.622 5.315C16.398 4.467 15.452 1.771 13.661 4.361C13.364 3.965 13.142 3.419 12.59 3.144C12.418 3.276 12.057 3.731 11.72 4.327C11.312 4.064 10.447 3.447 9.67699 3.552C9.55099 3.658 9.52199 4.178 9.44999 4.981C9.29999 5.013 8.23399 4.612 7.41699 4.851C7.38199 4.991 7.75099 5.917 8.01999 6.337C7.42799 6.296 6.37999 6.67 6.10599 6.961C6.11999 7.127 6.13599 7.67 7.40299 8.774C6.68899 8.997 6.04399 9.684 6.01999 9.85C5.88899 10.775 7.53799 11.763 7.94599 12.02C7.53899 12.842 7.22599 13.972 7.41599 14.398C8.25299 15.132 9.19799 15.245 9.91699 15.161C9.85822 15.3225 9.81957 15.4912 9.80199 15.663L9.78799 15.775C9.75235 16.0113 9.68713 16.2416 9.59399 16.46C9.53658 16.5753 9.51161 16.7054 9.52199 16.835V16.845L9.52399 16.851C9.56499 17.253 10.447 17.585 11.109 17.585C11.242 17.585 11.599 17.585 11.768 17.559H11.775C12.58 17.409 13.077 17.214 13.405 16.964C13.525 16.873 13.6 16.794 13.661 16.734C13.941 17.325 14.652 18.328 16.452 19.138C16.715 18.943 17.318 17.732 17.342 17.62C17.549 17.9 18.913 18.933 20.004 18.696C20.494 18.251 20.421 16.253 20.421 16.253C20.421 16.253 21.472 16.683 22.227 16.606C22.444 16.584 22.769 16.572 22.886 16.205C22.936 16.07 23.002 15.452 22.876 14.921C22.722 14.251 21.96 13.492 21.971 13.481C21.976 13.471 23.254 13.303 23.937 12.344C24.03 11.882 22.611 10.659 21.524 10.292Z" fill="#FFE100"/>
<path fill-rule="evenodd" clip-rule="evenodd" d="M13.225 25.29C13.954 23.98 15.409 22.249 18.917 22.725C18.917 22.725 14.851 23.257 13.225 25.289V25.29ZM5.655 19.893C8.839 19.259 10.618 21.267 11.349 22.708C8.699 19.831 5.654 19.893 5.654 19.893H5.655ZM19.735 22.375C17.285 20.182 15.342 21.808 14.875 22.082C14.087 22.623 13.545 23.149 13.156 23.655C13.387 22.407 13.758 20.659 13.856 19.998C13.989 19.122 14.348 16.665 13.85 16.378C13.72 16.328 13.699 16.312 13.654 16.816C13.654 16.816 13.6 17.81 12.86 20.172C12.559 21.258 12.368 21.814 12.205 22.336C11.965 21.403 11.312 20.283 9.765 19.116C9.3 18.816 7.357 17.024 4.91 19.454C4.7 19.697 4.485 20.109 5.022 20.462C5.558 20.816 5.732 21.029 5.872 21.466C6.006 21.904 6.598 23.419 8.571 23.592C10.586 23.767 10.997 24.069 11.333 24.372C11.333 24.372 11.517 24.562 11.696 24.676C11.689 24.726 11.678 24.776 11.676 24.828C11.676 24.828 11.378 27.61 12.037 28.674C12.767 29.858 13.537 29.523 13.537 29.523C13.537 29.523 13.041 28.698 12.897 27.161C13.094 27.065 13.321 26.853 13.321 26.853C13.746 26.487 14.069 26.303 16.075 26.133C18.051 25.976 18.641 24.601 18.777 24.21C18.912 23.812 19.086 23.62 19.621 23.294C20.16 22.974 19.937 22.6 19.735 22.377" fill="#96DE16"/>
<path fill-rule="evenodd" clip-rule="evenodd" d="M82.748 8.01199H70.718V12.132H74.766V24.474H78.702V12.131H82.748V8.01199ZM65.291 13.822H59.754V8.01199H55.831V13.822H54.68V17.939H55.831V24.474H59.754V17.94H65.291V24.475H69.215V8.01199H65.29V13.822H65.291ZM46.161 17.939H53.704V13.822H46.156V12.125L53.936 12.131L53.939 8.01199H42.15V24.474H54.176L54.179 20.357H46.16V17.939H46.161ZM24.606 24.474H28.779L32.799 12.127H35.973L35.968 24.474H40.145V8.01199H29.94L24.606 24.474Z" fill="white"/>
<path fill-rule="evenodd" clip-rule="evenodd" d="M87.586 15.52L88.511 12.672L89.437 15.519H87.586V15.52ZM90.946 8.01199H86.08L83.644 15.521H80.974V19.631H82.312L80.744 24.476H84.687L86.252 19.631H90.77L92.34 24.476H96.282L90.947 8.01199H90.946Z" fill="white"/>
</g>
<defs>
<clipPath id="clip0">
<rect width="102" height="32" fill="white"/>
</clipPath>
</defs>
</svg>
