<svg width="79" height="33" viewBox="0 0 79 33" fill="none" xmlns="http://www.w3.org/2000/svg">
<path d="M2.808 2.624L0.344 2.208V0.223999H10.584V2.208L7.512 2.624V21.728L14.36 21.44L16.376 15.456L18.968 15.808L17.976 24H0.28V22.08L2.808 21.76V2.624ZM20.8463 15.136C20.8463 13.1307 21.2409 11.424 22.0303 10.016C22.8409 8.608 23.9183 7.552 25.2623 6.848C26.6063 6.12267 28.0676 5.76 29.6463 5.76C32.3343 5.76 34.4036 6.592 35.8542 8.256C37.3263 9.89867 38.0623 12.1387 38.0623 14.976C38.0623 17.0027 37.6569 18.7307 36.8463 20.16C36.0569 21.568 34.9903 22.624 33.6463 23.328C32.3236 24.0107 30.8623 24.352 29.2623 24.352C26.5956 24.352 24.5263 23.5307 23.0543 21.888C21.5823 20.224 20.8463 17.9733 20.8463 15.136ZM29.5183 22.272C31.9289 22.272 33.1343 19.9467 33.1343 15.296C33.1343 12.864 32.8463 11.0187 32.2703 9.76C31.6943 8.48 30.7556 7.84 29.4543 7.84C26.9796 7.84 25.7423 10.1653 25.7423 14.816C25.7423 17.248 26.0409 19.104 26.6383 20.384C27.2569 21.6427 28.2169 22.272 29.5183 22.272ZM48.7153 32.64C45.8566 32.64 43.7873 32.192 42.5073 31.296C41.2273 30.4 40.5872 29.184 40.5872 27.648C40.5872 26.7733 40.8753 25.9413 41.4513 25.152C42.0486 24.384 42.7633 23.808 43.5953 23.424C42.6139 22.848 42.1233 21.9307 42.1233 20.672C42.1233 19.9467 42.3579 19.264 42.8273 18.624C43.2966 17.9627 43.9046 17.4507 44.6513 17.088C43.4779 16.64 42.6033 15.9573 42.0273 15.04C41.4513 14.1227 41.1633 13.0347 41.1633 11.776C41.1633 10.56 41.5153 9.504 42.2193 8.608C42.9446 7.69067 43.9046 6.98667 45.0993 6.496C46.3153 6.00533 47.6273 5.76 49.0353 5.76C51.5313 5.76 53.3873 6.24 54.6033 7.2C54.8806 6.83733 55.3499 6.496 56.0113 6.176C56.6726 5.856 57.3553 5.696 58.0593 5.696H59.1793V9.184H55.8833C56.2033 9.86667 56.3633 10.592 56.3633 11.36C56.3846 13.3013 55.7019 14.8587 54.3153 16.032C52.9286 17.184 51.0299 17.76 48.6193 17.76C47.6166 17.76 46.7739 17.6853 46.0913 17.536C45.8779 17.8133 45.7073 18.112 45.5793 18.432C45.4726 18.7307 45.4193 18.9973 45.4193 19.232C45.4193 19.936 45.6646 20.416 46.1553 20.672C46.6673 20.928 47.5739 21.056 48.8753 21.056H52.2993C56.6513 21.056 58.8273 22.6347 58.8273 25.792C58.8273 27.1147 58.3579 28.2987 57.4193 29.344C56.4806 30.3893 55.2326 31.2 53.6753 31.776C52.1179 32.352 50.4646 32.64 48.7153 32.64ZM48.9392 15.776C50.9233 15.776 51.9153 14.4213 51.9153 11.712C51.9153 10.3253 51.6593 9.312 51.1473 8.672C50.6566 8.01067 49.8993 7.68 48.8753 7.68C47.8726 7.68 47.0939 8.01067 46.5393 8.672C46.0059 9.312 45.7393 10.2827 45.7393 11.584C45.7393 14.3787 46.8059 15.776 48.9392 15.776ZM49.1953 30.432C50.5393 30.432 51.7019 30.1013 52.6833 29.44C53.6646 28.8 54.1553 27.904 54.1553 26.752C54.1553 25.8347 53.9099 25.1733 53.4193 24.768C52.9499 24.3627 52.0966 24.16 50.8593 24.16H47.3713C46.8379 24.16 46.3473 24.128 45.8993 24.064C45.3233 24.832 45.0353 25.7493 45.0353 26.816C45.0353 27.9893 45.3553 28.8853 45.9953 29.504C46.6353 30.1227 47.7019 30.432 49.1953 30.432ZM60.8775 15.136C60.8775 13.1307 61.2722 11.424 62.0615 10.016C62.8722 8.608 63.9495 7.552 65.2935 6.848C66.6375 6.12267 68.0988 5.76 69.6775 5.76C72.3655 5.76 74.4348 6.592 75.8855 8.256C77.3575 9.89867 78.0935 12.1387 78.0935 14.976C78.0935 17.0027 77.6882 18.7307 76.8775 20.16C76.0882 21.568 75.0215 22.624 73.6775 23.328C72.3548 24.0107 70.8935 24.352 69.2935 24.352C66.6268 24.352 64.5575 23.5307 63.0855 21.888C61.6135 20.224 60.8775 17.9733 60.8775 15.136ZM69.5495 22.272C71.9602 22.272 73.1655 19.9467 73.1655 15.296C73.1655 12.864 72.8775 11.0187 72.3015 9.76C71.7255 8.48 70.7868 7.84 69.4855 7.84C67.0108 7.84 65.7735 10.1653 65.7735 14.816C65.7735 17.248 66.0722 19.104 66.6695 20.384C67.2882 21.6427 68.2482 22.272 69.5495 22.272Z" fill="#222222"/>
</svg>
