<svg width="22" height="22" viewBox="0 0 22 22" fill="none" xmlns="http://www.w3.org/2000/svg">
<g clip-path="url(#clip0)">
<path d="M10.9999 0C6.47624 0 2.79602 3.68171 2.79602 8.2072C2.79602 14.9499 10.1834 21.5335 10.4979 21.8106C10.6414 21.9369 10.8206 22.0001 10.9999 22.0001C11.1793 22.0001 11.3585 21.9369 11.502 21.8106C11.8165 21.5336 19.2039 14.95 19.2039 8.2072C19.2039 3.68171 15.5237 0 10.9999 0ZM10.9999 20.1992C9.36669 18.6166 4.31528 13.3082 4.31528 8.2072C4.31528 4.51949 7.31402 1.51926 10.9999 1.51926C14.6859 1.51926 17.6846 4.51949 17.6846 8.2072C17.6846 13.3081 12.6332 18.6165 10.9999 20.1992Z" fill="#FDCA06"/>
<path d="M11.0001 4.38395C8.9058 4.38395 7.20203 6.09905 7.20203 8.2072C7.20203 10.3154 8.9058 12.0304 11.0001 12.0304C13.0944 12.0304 14.7982 10.3154 14.7982 8.2072C14.7982 6.09905 13.0944 4.38395 11.0001 4.38395ZM11.0001 10.5112C9.7435 10.5112 8.72121 9.47764 8.72121 8.2072C8.72121 6.93683 9.7435 5.9032 11.0001 5.9032C12.2567 5.9032 13.279 6.93676 13.279 8.2072C13.279 9.47764 12.2567 10.5112 11.0001 10.5112Z" fill="#FDCA06"/>
</g>
<defs>
<clipPath id="clip0">
<rect width="22" height="22" fill="white"/>
</clipPath>
</defs>
</svg>
