<svg width="108" height="30" viewBox="0 0 108 30" fill="none" xmlns="http://www.w3.org/2000/svg">
<path fill-rule="evenodd" clip-rule="evenodd" d="M0.516846 29.2506H107.483V0.74939H0.516846V29.2506Z" fill="#05396A"/>
<path fill-rule="evenodd" clip-rule="evenodd" d="M96.8691 19.5319C96.844 19.7294 96.7686 20.2481 96.0892 20.3156H90.1153C89.4359 20.2481 89.3116 19.7281 89.2865 19.5319V10.3669C89.3116 10.1706 89.4058 9.75065 90.0852 9.68315H96.0892C96.7699 9.75065 96.8427 10.1706 96.8678 10.3669V19.5319H96.8691ZM98.9361 6.2294H87.2194C85.4588 6.3719 83.9719 7.2594 83.7735 9.2444V20.5906C83.9719 22.5756 85.4588 23.6281 87.2194 23.7694H98.9361C100.696 23.6281 102.184 22.5756 102.382 20.5906V9.2444C102.184 7.2594 100.696 6.3719 98.9361 6.2294ZM51.5191 9.68315H46.2824V6.2294H62.2702V9.68315H57.0322V23.7694H51.5191V9.68315ZM44.626 9.68315V6.2294H30.2909V23.7694L44.8169 23.7656L44.8219 20.3156H35.8177L35.8202 16.5606H44.626V13.1156H35.8202V9.68315H44.626ZM76.6053 12.4006C76.6053 12.7819 76.5111 13.1131 75.8267 13.1131H69.4383V9.67315H75.8329C76.6115 9.67315 76.6053 10.1781 76.6053 10.4944V12.3994V12.4006ZM78.1336 16.9506C79.8528 16.8131 81.5683 15.6506 81.5683 13.7381V9.40815C81.3673 7.43315 79.8767 6.3644 78.1085 6.2244H63.9241V23.7694H69.4371V16.9494H71.6322L75.2163 23.7681H81.5582L77.2884 16.9494H78.1336V16.9506ZM18.878 23.7694L22.5714 12.7519V23.7694H28.0856V6.2294H20.6437L17.0596 15.0006L13.4755 6.2294H6.02979V23.7694H11.5453V12.7519L15.265 23.7694H18.878Z" fill="#05396A"/>
<path fill-rule="evenodd" clip-rule="evenodd" d="M0.516846 29.2506H107.483V0.74939H0.516846V29.2506Z" fill="#05396A"/>
<path fill-rule="evenodd" clip-rule="evenodd" d="M96.8691 19.5319C96.844 19.7294 96.7686 20.2481 96.0892 20.3156H90.1153C89.4359 20.2481 89.3116 19.7281 89.2865 19.5319V10.3669C89.3116 10.1706 89.4058 9.75065 90.0852 9.68315H96.0892C96.7699 9.75065 96.8427 10.1706 96.8678 10.3669V19.5319H96.8691ZM98.9361 6.2294H87.2194C85.4588 6.3719 83.9719 7.2594 83.7735 9.2444V20.5906C83.9719 22.5756 85.4588 23.6281 87.2194 23.7694H98.9361C100.696 23.6281 102.184 22.5756 102.382 20.5906V9.2444C102.184 7.2594 100.696 6.3719 98.9361 6.2294ZM51.5191 9.68315H46.2824V6.2294H62.2702V9.68315H57.0322V23.7694H51.5191V9.68315ZM44.626 9.68315V6.2294H30.2909V23.7694L44.8169 23.7656L44.8219 20.3156H35.8177L35.8202 16.5606H44.626V13.1156H35.8202V9.68315H44.626ZM76.6053 12.4006C76.6053 12.7819 76.5111 13.1131 75.8267 13.1131H69.4383V9.67315H75.8329C76.6115 9.67315 76.6053 10.1781 76.6053 10.4944V12.3994V12.4006ZM78.1336 16.9506C79.8528 16.8131 81.5683 15.6506 81.5683 13.7381V9.40815C81.3673 7.43315 79.8767 6.3644 78.1085 6.2244H63.9241V23.7694H69.4371V16.9494H71.6322L75.2163 23.7681H81.5582L77.2884 16.9494H78.1336V16.9506ZM18.878 23.7694L22.5714 12.7519V23.7694H28.0856V6.2294H20.6437L17.0596 15.0006L13.4755 6.2294H6.02979V23.7694H11.5453V12.7519L15.265 23.7694H18.878Z" fill="#FFE611"/>
</svg>
