<svg width="20" height="20" viewBox="0 0 20 20" fill="none" xmlns="http://www.w3.org/2000/svg">
<path d="M4.16337 16.4617C4.00337 16.4617 3.84337 16.4008 3.7217 16.2783C3.47753 16.0342 3.47753 15.6383 3.7217 15.3942L14.6367 4.47916C14.8809 4.23499 15.2767 4.23499 15.5209 4.47916C15.765 4.72333 15.765 5.11916 15.5209 5.36333L4.60503 16.2792C4.48337 16.4008 4.32337 16.4617 4.16337 16.4617Z" fill="white"/>
<path d="M0.625019 20C0.460853 20 0.300853 19.935 0.183353 19.8167C0.0350195 19.6692 -0.0283137 19.4567 0.0125196 19.2525L1.19169 13.36C1.21585 13.2383 1.27585 13.1275 1.36252 13.0408L13.5033 0.89916C14.6617 -0.260007 16.6842 -0.26084 17.8458 0.89916L19.1008 2.15416C20.2983 3.35166 20.2983 5.29916 19.1008 6.49666L6.96002 18.6375C6.87335 18.725 6.76168 18.7842 6.64085 18.8083L0.748352 19.9875C0.707519 19.9958 0.665852 20 0.625019 20ZM2.37918 13.79L1.42169 18.5783L6.20918 17.62L18.2167 5.61333C18.9267 4.90333 18.9267 3.74833 18.2167 3.03833L16.9617 1.78333C16.2717 1.09499 15.0717 1.09583 14.3867 1.78333L2.37918 13.79ZM6.51752 18.1958H6.52585H6.51752Z" fill="white"/>
<path d="M6.51744 18.8208C6.35744 18.8208 6.19744 18.76 6.07577 18.6375L1.36245 13.9242C1.11828 13.68 1.11828 13.2842 1.36245 13.04C1.60661 12.7958 2.00245 12.7958 2.24661 13.04L6.95994 17.7533C7.20411 17.9975 7.20411 18.3933 6.95994 18.6375C6.83744 18.76 6.67827 18.8208 6.51744 18.8208Z" fill="white"/>
<path d="M17.4358 7.90251C17.2758 7.90251 17.1158 7.84168 16.9941 7.71918L12.2808 3.00584C12.0366 2.76168 12.0366 2.36584 12.2808 2.12168C12.5249 1.87751 12.9208 1.87751 13.1649 2.12168L17.8783 6.83501C18.1224 7.07918 18.1224 7.47501 17.8783 7.71918C17.7558 7.84168 17.5958 7.90251 17.4358 7.90251Z" fill="white"/>
</svg>
