<svg width="26" height="30" viewBox="0 0 26 30" fill="none" xmlns="http://www.w3.org/2000/svg">
<path d="M12.8914 16.1648C12.9224 16.1648 12.9535 16.1648 12.9908 16.1648C13.0032 16.1648 13.0156 16.1648 13.028 16.1648C13.0467 16.1648 13.0715 16.1648 13.0902 16.1648C14.9104 16.1338 16.3828 15.4939 17.47 14.27C19.8618 11.5738 19.4642 6.95175 19.4207 6.51066C19.2654 3.19942 17.6998 1.61524 16.4076 0.875958C15.4447 0.323048 14.3202 0.0248499 13.0653 0H13.0218C13.0156 0 13.0032 0 12.997 0H12.9597C12.2701 0 10.9158 0.111824 9.6174 0.851108C8.31278 1.59039 6.72239 3.17457 6.56708 6.51066C6.52359 6.95175 6.12599 11.5738 8.51779 14.27C9.59876 15.4939 11.0711 16.1338 12.8914 16.1648ZM8.22581 6.66598C8.22581 6.64734 8.23202 6.6287 8.23202 6.61628C8.43703 2.16194 11.5992 1.68358 12.9535 1.68358H12.9783C12.9908 1.68358 13.0094 1.68358 13.028 1.68358C14.7054 1.72085 17.5569 2.40422 17.7495 6.61628C17.7495 6.63491 17.7495 6.65355 17.7557 6.66598C17.7619 6.70946 18.1968 10.9339 16.2212 13.158C15.4385 14.0402 14.3948 14.475 13.0218 14.4875C13.0094 14.4875 13.0032 14.4875 12.9908 14.4875C12.9783 14.4875 12.9721 14.4875 12.9597 14.4875C11.593 14.475 10.5431 14.0402 9.7665 13.158C7.79714 10.9464 8.21959 6.70325 8.22581 6.66598Z" fill="#333333"/>
<path d="M25.7574 23.831C25.7574 23.8248 25.7574 23.8186 25.7574 23.8124C25.7574 23.7627 25.7512 23.713 25.7512 23.6571C25.7139 22.427 25.6331 19.5506 22.9369 18.6312C22.9183 18.625 22.8934 18.6188 22.8748 18.6126C20.073 17.8981 17.7433 16.2829 17.7184 16.2642C17.3395 15.9971 16.8176 16.0903 16.5505 16.4692C16.2834 16.8482 16.3766 17.3701 16.7555 17.6372C16.8611 17.7117 19.3337 19.4326 22.4275 20.2278C23.875 20.7434 24.0365 22.2903 24.08 23.7068C24.08 23.7627 24.08 23.8124 24.0862 23.8621C24.0924 24.4212 24.0552 25.2847 23.9558 25.7817C22.9493 26.3533 19.0044 28.3289 13.0032 28.3289C7.02679 28.3289 3.05703 26.3471 2.04439 25.7755C1.945 25.2785 1.90151 24.415 1.91393 23.8559C1.91393 23.8062 1.92015 23.7565 1.92015 23.7006C1.96363 22.2841 2.12516 20.7372 3.57266 20.2216C6.66647 19.4264 9.13903 17.6993 9.24464 17.631C9.6236 17.3638 9.71679 16.842 9.44966 16.463C9.18252 16.0841 8.66067 15.9909 8.28171 16.258C8.25686 16.2767 5.93961 17.8919 3.12536 18.6063C3.10051 18.6126 3.08188 18.6188 3.06324 18.625C0.367029 19.5506 0.286267 22.427 0.248992 23.6509C0.248992 23.7068 0.248992 23.7565 0.24278 23.8062C0.24278 23.8124 0.24278 23.8186 0.24278 23.8248C0.236567 24.1479 0.230355 25.8066 0.559616 26.6391C0.62174 26.8006 0.733565 26.9373 0.882664 27.0305C1.06904 27.1547 5.5358 30 13.0094 30C20.483 30 24.9498 27.1485 25.1361 27.0305C25.279 26.9373 25.3971 26.8006 25.4592 26.6391C25.7698 25.8128 25.7636 24.1541 25.7574 23.831Z" fill="#333333"/>
</svg>
